<svg width="51" height="38" viewBox="0 0 51 38" fill="none" xmlns="http://www.w3.org/2000/svg">
<path d="M50.5969 0.899993C49.6969 4.69999 48.7469 8.79999 47.7469 13.2C46.7469 17.6 45.8469 21.9 45.0469 26.1C44.2469 30.3 43.5969 34.15 43.0969 37.65H28.8469L27.7969 36C28.6969 32.5 29.8469 28.75 31.2469 24.75C32.6469 20.65 34.1969 16.55 35.8969 12.45C37.5969 8.35 39.2469 4.49999 40.8469 0.899993H50.5969ZM22.8469 0.899993C21.9469 4.69999 20.9969 8.79999 19.9969 13.2C18.9969 17.6 18.0969 21.9 17.2969 26.1C16.4969 30.3 15.8469 34.15 15.3469 37.65H1.24688L0.346875 36C1.24688 32.5 2.39688 28.75 3.79688 24.75C5.19688 20.65 6.69688 16.55 8.29688 12.45C9.99688 8.35 11.6469 4.49999 13.2469 0.899993H22.8469Z" fill="#541E43"/>
</svg>
