<svg width="25" height="34" viewBox="0 0 25 34" fill="none" xmlns="http://www.w3.org/2000/svg">
<path d="M7.4 33.4C5.1 33.4 3.4 32.4 2.2 30.6C1.2 29.2 0.7 27.6 0.4 26C0.3 25.3 -1.19209e-07 20.7 1.3 15.1C1.9 12.4 2.9 9.7 4.1 7.2C4.8 5.6 5.6 4.2 6.9 3C8.5 1.5 10.8 0.899998 13.1 1.2C15.2 1.4 16.4 2.9 16.2 4.9C16.2 6.1 15.8 7.2 15.3 8.2C14 11.3 12 13.9 9.5 16.2C8.3 17.2 7 18.1 5.3 18.4C4.8 18.5 4.6 18.8 4.6 19.2C4.3 22 4.3 24.9 5.2 27.6C5.5 28.7 6 29.7 6.8 30.6C7.8 31.6 8.4 31.5 9.4 30.8C10.5 30.1 11.3 29.3 12.1 28.3C13.7 26.2 15.2 24.1 16.4 21.7C19 16.9 19.6 15.1 21.7 11.4C22.3 10.5 23 10.2 24 10.5C24.5 10.6 24.9 11 24.7 11.5C23.5 15.2 22.4 16.9 20.5 21.2C19 24.2 17.3 26.9 15.3 29.5C13.9 31.2 12.3 32.6 10.2 33.1C9.4 33.4 8.2 33.5 7.4 33.4ZM5.2 16.3C6 16.1 6.5 15.5 7.1 15C8.3 13.7 9.4 12.3 10.3 10.8C11.2 9.3 11.9 7.7 12.4 6C12.6 5.5 12.7 4.9 12.6 4.3C12.6 4 12.5 3.6 12.3 3.2C12.1 3 11.9 2.9 11.6 2.8C11.4 2.8 11.2 2.9 11 3C10.7 3.2 10.4 3.5 10.1 3.8C9.8 4.1 9.5 4.4 9.3 4.8C8.8 5.4 8.4 6.1 8.1 6.9C7.5 8.1 7 9.4 6.6 10.7C6.3 11.7 6 12.7 5.7 13.6L5.4 15.1C5.3 15.4 5.1 16.2 5.2 16.3Z" fill="#95937F"/>
</svg>
