<svg width="268" height="55" viewBox="0 0 268 55" fill="none" xmlns="http://www.w3.org/2000/svg">
<path d="M1.15 10.65C0.95 10.6 0.649999 10.6 0.649999 10.3C0.6 10.05 0.799999 9.95 1 9.85C1.25 9.7 1.5 9.55 1.8 9.45C9.3 6.35 16.95 3.75 24.95 2.3C29.6 1.45 34.3 1.1 39 1.45C40.9 1.6 42.75 1.9 44.55 2.55C45.3 2.8 46 3.1 46.6 3.6C47.35 4.15 47.85 4.95 47.9 5.9C47.95 6.95 47.55 8 46.9 8.75C46.4 9.3 45.45 9.6 44.7 9.4C44.45 9.35 43.9 9.05 44 8.65C44.1 8.35 44.4 8.15 44.55 7.85C44.9 7.3 45.15 6.55 45 5.85C44.85 4.95 44.05 4.35 43.25 3.95C42.6 3.65 41.9 3.45 41.2 3.3C40.2 3.15 39.2 2.95 38.25 2.9C37.35 2.8 36.45 2.85 35.55 2.85C29.95 2.75 24.45 3.6 19.05 5.05C13.65 6.4 8.4 8.15 3.25 10.25C3 10.35 2.7 10.5 2.45 10.55C2 10.7 1.6 10.75 1.15 10.65ZM16.4 52.75C16.05 52.35 15.85 51.9 15.65 51.45C14.85 49.65 14.45 47.75 14.15 45.8C13.95 44.75 13.85 43.7 13.75 42.6C13.6 40.25 13.65 37.9 13.9 35.5C14.1 33.15 14.5 30.8 15 28.45C15.15 27.55 15.35 26.7 15.55 25.75C15.55 25.75 16 23.95 16.05 23.6C17.5 17.65 19 13.5 21.15 7.75C21.4 7.15 21.55 6.7 21.85 6.1C22.1 5.5 22.25 5.5 22.95 5.55C23.35 5.6 23.5 5.85 23.45 6.15C23.4 6.4 23.35 6.6 23.25 6.85C22.3 10 19.8 19.35 19.2 21.65L18.55 24.55C18.3 25.55 18.1 26.55 17.9 27.6C17.4 29.95 17 32.3 16.7 34.65C16.4 37 16.2 39.4 16.3 41.8C16.35 43.65 16.5 45.55 16.75 47.4C16.9 48.2 17.05 49 17.25 49.75C17.4 50.3 17.55 50.9 17.9 51.4C18.1 51.15 18.1 50.85 18.15 50.55C18.3 50.05 19.1 49.8 19.5 50.1C19.65 50.2 19.7 50.35 19.7 50.5C19.65 51.3 19.5 52.05 19.1 52.7C18.55 53.5 17.1 53.5 16.4 52.75ZM34.7039 38.7C33.5539 38.7 32.7039 38.2 32.1039 37.3C31.6039 36.6 31.3539 35.8 31.2039 35C31.1539 34.65 31.0039 32.35 31.6539 29.55C31.9539 28.2 32.4539 26.85 33.0539 25.6C33.4039 24.8 33.8039 24.1 34.4539 23.5C35.2539 22.75 36.4039 22.45 37.5539 22.6C38.6039 22.7 39.2039 23.45 39.1039 24.45C39.1039 25.05 38.9039 25.6 38.6539 26.1C38.0039 27.65 37.0039 28.95 35.7539 30.1C35.1539 30.6 34.5039 31.05 33.6539 31.2C33.4039 31.25 33.3039 31.4 33.3039 31.6C33.1539 33 33.1539 34.45 33.6039 35.8C33.7539 36.35 34.0039 36.85 34.4039 37.3C34.9039 37.8 35.2039 37.75 35.7039 37.4C36.2539 37.05 36.6539 36.65 37.0539 36.15C37.8539 35.1 38.6039 34.05 39.2039 32.85C40.5039 30.45 40.8039 29.55 41.8539 27.7C42.1539 27.25 42.5039 27.1 43.0039 27.25C43.2539 27.3 43.4539 27.5 43.3539 27.75C42.7539 29.6 42.2039 30.45 41.2539 32.6C40.5039 34.1 39.6539 35.45 38.6539 36.75C37.9539 37.6 37.1539 38.3 36.1039 38.55C35.7039 38.7 35.1039 38.75 34.7039 38.7ZM33.6039 30.15C34.0039 30.05 34.2539 29.75 34.5539 29.5C35.1539 28.85 35.7039 28.15 36.1539 27.4C36.6039 26.65 36.9539 25.85 37.2039 25C37.3039 24.75 37.3539 24.45 37.3039 24.15C37.3039 24 37.2539 23.8 37.1539 23.6C37.0539 23.5 36.9539 23.45 36.8039 23.4C36.7039 23.4 36.6039 23.45 36.5039 23.5C36.3539 23.6 36.2039 23.75 36.0539 23.9C35.9039 24.05 35.7539 24.2 35.6539 24.4C35.4039 24.7 35.2039 25.05 35.0539 25.45C34.7539 26.05 34.5039 26.7 34.3039 27.35C34.1539 27.85 34.0039 28.35 33.8539 28.8L33.7039 29.55C33.6539 29.7 33.5539 30.1 33.6039 30.15ZM47.7219 38.6C47.5219 38.6 47.7219 38.6 47.5219 38.6C46.8719 38.55 46.4719 38.15 46.3219 37.5C46.1219 36.75 46.0219 35.95 46.0719 35.15C46.2219 31.45 46.3719 28.9 47.5219 25.35C47.6719 24.8 47.8719 24.25 48.2219 23.75C48.5219 23.25 48.9719 23.05 49.4719 23.25C49.7219 23.3 49.8219 23.5 49.7219 23.8C49.1219 25.45 48.3219 29.3 48.2219 34.15C48.2219 34.3 48.1719 34.45 48.2719 34.65C48.6719 33.8 48.9219 32.95 49.1719 32.15C49.6219 30.75 50.4719 28 51.0219 26.65C51.3219 25.85 51.6719 25.1 52.0719 24.35C52.2719 23.95 52.5719 23.6 52.8719 23.2C53.7719 22.05 55.9219 22.05 56.6219 23.55C56.7719 23.95 56.9219 24.3 57.0719 24.7C57.1719 24.9 57.2719 25.15 57.5219 25.2C57.6719 25.3 57.8219 25.4 57.8219 25.65C57.7719 25.9 57.6219 26.05 57.4219 26.15C56.6719 26.55 55.5719 26.25 55.1719 25.5C55.0719 25.25 54.9719 24.95 54.8219 24.65C54.7219 24.4 54.6719 24.15 54.4719 23.9C54.0719 24.3 53.8719 24.7 53.6219 25.15C52.9219 26.55 52.4219 28 52.0219 29.5C51.5219 31.25 50.5719 34.35 49.9719 36C49.7719 36.55 49.5219 37.1 49.2719 37.6C48.9219 38.3 48.4219 38.6 47.7219 38.6ZM70.3547 40.8H70.4047C69.6047 40.85 68.8547 40 68.5047 39.15C68.1047 38.05 67.4047 35 68.8547 27.75C68.7547 27.9 68.7547 28.05 68.7047 28.2C67.9047 30.65 66.9547 33.1 65.7047 35.35C65.3547 36.05 64.9547 36.7 64.4047 37.3C64.0047 37.8 63.4547 38 62.8047 37.95C62.2547 37.95 61.8047 37.7 61.5547 37.15C61.3047 36.65 61.2047 36.1 61.2047 35.55C61.1047 34.25 61.2047 32.95 61.5547 31.65C62.1547 29.05 63.2547 26.65 65.0047 24.6C65.5047 24 66.0547 23.55 66.6547 23.1C67.6547 22.35 68.8047 22.05 70.0047 22.15C70.6047 22.2 71.3047 22.75 71.4547 23.4C71.7047 24.25 71.5047 25 71.3047 25.8C71.1047 26.75 70.9047 27.7 70.7547 28.65L70.6047 29.7C70.3547 31.2 70.2047 32.75 70.1547 34.3C70.0547 36.1 69.8047 38.3 70.8047 40.05C71.1547 40.65 71.0047 40.8 70.3547 40.8ZM63.3547 36.25C63.7547 35.95 63.9547 35.6 64.1547 35.25C64.9547 33.9 65.6547 32.5 66.2047 31.05C67.1047 28.75 67.7547 26.4 68.5047 24.1C68.5047 24 68.5547 23.9 68.4047 23.85C68.0547 23.95 67.7547 24.2 67.4547 24.45C66.6547 25.15 66.0547 25.9 65.5547 26.75C64.2547 28.9 63.4047 31.2 63.1047 33.7C63.0547 34.55 63.0047 35.4 63.3547 36.25ZM81.9422 54.1C81.1422 54.5 80.0922 54.1 79.5922 53.15C79.1922 52.4 78.9922 51.6 78.8422 50.8C77.9922 46.65 77.7422 42.45 77.8422 38.25C77.9922 35.15 78.2922 32.1 78.8922 29.05C79.3922 26.8 79.9422 24.95 80.1922 24.3C80.2922 23.95 80.4422 23.6 80.6422 23.25C80.9422 22.7 81.4922 22.5 82.0422 22.8C82.1922 22.9 82.2922 23.1 82.2422 23.3C82.1922 23.55 82.1422 23.8 82.0422 24C81.3422 26.4 81.3422 27 80.8922 29.45C81.3922 28.55 82.0922 27.45 82.8422 26.5C84.2422 24.75 86.2422 23.45 87.6922 23.85C88.6422 24.1 89.2922 24.8 89.5422 25.75C89.7422 26.4 89.7422 27.05 89.7422 27.75C89.7422 27.85 89.7422 27.95 89.6922 28.05C89.6922 28.15 89.7422 28.2 89.8422 28.3C90.2422 28.65 90.4422 29 90.1422 29.45C90.0422 29.6 89.8922 29.65 89.7422 29.6C89.5422 29.55 89.4922 29.65 89.4422 29.8C89.2922 30.5 89.0422 31.5 88.7922 32.15C88.2922 33.45 87.7922 34.8 87.0422 35.95C86.7422 36.35 86.4422 36.75 86.0422 37.05C85.2922 37.6 84.4922 37.75 83.6422 37.35C83.1922 37.15 82.9422 36.75 82.7922 36.3C82.6922 35.9 82.6422 35.45 82.6922 35.05C82.6922 34.7 82.7922 34.35 82.8422 34.05C83.6422 31.1 85.1922 29.2 87.8422 28.25C88.0922 28.1 88.0922 28.15 88.1422 27.8C88.1922 27.2 88.1922 26.65 88.1422 26.05C88.0922 25.7 88.0922 25.25 87.8922 24.95C87.4922 24.55 86.8422 24.8 86.4922 25.05C85.9422 25.4 85.1422 25.9 83.9922 27.35C82.8922 28.75 80.2422 33 79.8422 39.2C79.7922 40.05 79.7922 41.15 79.7922 41.6C79.8422 42.25 79.8422 42.95 79.8922 43.65L80.0422 45.65C80.0422 46.05 80.0922 46.4 80.1422 46.75C80.2922 48.45 80.5422 50.1 80.9422 51.75C81.1422 52.45 81.2922 53.2 82.0422 53.6C82.2422 53.7 82.1922 54 81.9422 54.1ZM84.3922 36.4C84.6922 36.3 84.7422 36.15 84.9922 35.9C85.4922 35.4 85.8922 34.75 86.1922 34.05C86.6922 32.95 87.0922 31.85 87.4422 30.7C87.5922 30.2 87.6922 29.9 87.7422 29.35C87.6422 29.3 87.7422 29.3 87.6922 29.35C85.9422 30.4 84.7922 31.65 84.1422 33.65C83.9922 34.2 83.8422 34.8 83.8922 35.4C83.8922 35.7 83.9422 35.95 84.0422 36.25C84.1422 36.45 84.1922 36.5 84.3922 36.4ZM101.371 15.8C101.071 15.8 100.771 15.65 100.821 15.4C100.821 15.15 101.121 15.05 101.471 15.1C101.771 15.1 102.071 15.25 102.021 15.5C102.021 15.8 101.721 15.85 101.371 15.8ZM105.121 27.35C105.371 27.45 105.521 27.6 105.421 27.9C105.271 28.25 105.171 28.6 105.021 28.95C103.921 31.4 102.771 33.85 101.521 36.2C101.021 37.1 100.521 38 99.8711 38.8C99.2711 39.5 98.5711 39.75 97.7211 39.7C97.1211 39.65 96.7211 39.35 96.5211 38.8C96.3211 38.25 96.2211 37.75 96.1711 37.2C96.0711 35.3 96.2711 33.45 96.5711 31.6C97.0211 29.15 97.5711 26.7 98.3711 24.35C98.4711 24 98.6211 23.6 98.7711 23.25C98.9211 22.9 99.2711 22.75 99.6711 22.75C100.321 22.75 100.471 22.95 100.271 23.55C99.3211 26.7 98.7711 29.9 98.3211 33.15C98.1211 34.35 98.0211 35.55 98.0711 36.75C98.0711 36.75 98.0711 37.9 98.2211 38.25C98.6711 37.75 99.1711 36.95 99.4711 36.4C100.671 34.3 101.721 32.15 102.821 29.95C103.171 29.25 103.471 28.5 103.921 27.85C104.271 27.35 104.671 27.2 105.121 27.35ZM116.458 40.8H116.508C115.708 40.85 114.958 40 114.608 39.15C114.208 38.05 113.508 35 114.958 27.75C114.858 27.9 114.858 28.05 114.808 28.2C114.008 30.65 113.058 33.1 111.808 35.35C111.458 36.05 111.058 36.7 110.508 37.3C110.108 37.8 109.558 38 108.908 37.95C108.358 37.95 107.908 37.7 107.658 37.15C107.408 36.65 107.308 36.1 107.308 35.55C107.208 34.25 107.308 32.95 107.658 31.65C108.258 29.05 109.358 26.65 111.108 24.6C111.608 24 112.158 23.55 112.758 23.1C113.758 22.35 114.908 22.05 116.108 22.15C116.708 22.2 117.408 22.75 117.558 23.4C117.808 24.25 117.608 25 117.408 25.8C117.208 26.75 117.008 27.7 116.858 28.65L116.708 29.7C116.458 31.2 116.308 32.75 116.258 34.3C116.158 36.1 115.908 38.3 116.908 40.05C117.258 40.65 117.108 40.8 116.458 40.8ZM109.458 36.25C109.858 35.95 110.058 35.6 110.258 35.25C111.058 33.9 111.758 32.5 112.308 31.05C113.208 28.75 113.858 26.4 114.608 24.1C114.608 24 114.658 23.9 114.508 23.85C114.158 23.95 113.858 24.2 113.558 24.45C112.758 25.15 112.158 25.9 111.658 26.75C110.358 28.9 109.508 31.2 109.208 33.7C109.158 34.55 109.108 35.4 109.458 36.25ZM151.496 51.35C149.696 51.15 148.196 50.2 146.996 48.65C145.646 46.9 144.846 44.85 144.346 42.7C143.446 38.6 143.646 34.55 144.496 30.55C145.296 26.9 146.546 23.5 148.046 20.15C149.996 15.7 152.296 11.55 155.246 7.8C156.696 5.9 158.246 4.15 160.046 2.7C161.496 1.5 162.996 0.549999 164.796 0.199998C165.396 0.0999992 165.996 0.0499969 166.646 0.0999992C168.596 0.199998 170.046 1.65 170.396 3.85C170.596 5.25 170.496 6.65 170.196 8C169.746 10.15 168.946 12.15 168.096 14.1C166.596 17.45 164.796 20.55 162.696 23.45C162.046 24.3 161.396 25.05 160.646 25.75C160.046 26.25 159.396 26.5 158.696 26.45C157.896 26.4 157.546 25.85 157.796 25.05C158.046 24.3 158.596 23.85 159.246 23.9C159.646 23.9 159.746 24.1 159.546 24.45C159.446 24.65 159.246 24.8 159.346 25.15C159.646 25 159.846 24.7 160.046 24.45C160.896 23.4 161.646 22.3 162.346 21.1C164.346 17.8 166.046 14.3 167.296 10.5C167.796 9 168.196 7.45 168.296 5.8C168.296 4.9 168.246 4 167.946 3.15C167.346 1.45 166.196 0.899998 164.696 1.45C163.546 1.9 162.546 2.6 161.596 3.45C159.896 4.9 158.396 6.6 156.996 8.45C153.846 12.7 151.446 17.45 149.496 22.5C148.146 25.9 147.146 29.4 146.596 33.1C146.296 35.45 146.196 37.8 146.546 40.2C146.796 42.3 147.246 44.35 148.246 46.25C148.696 47.15 149.246 48 149.896 48.7C151.346 50.2 152.896 50.55 154.646 49.75C155.896 49.15 156.996 48.25 157.996 47.25C160.096 45.15 161.796 42.7 163.246 40C164.196 38.15 165.046 36.2 165.696 34.2C165.996 33.3 166.196 32.35 166.246 31.4C166.296 31 166.296 30.65 165.946 30.4C165.696 30.25 165.746 30 165.946 29.85C166.396 29.5 166.946 29.45 167.496 29.65C167.946 29.8 168.046 30.3 168.146 30.75C168.246 31.45 168.196 32.15 168.096 32.8C167.946 33.4 167.846 34.05 167.646 34.6C165.996 39.9 163.346 44.45 159.546 48.15C158.246 49.4 156.846 50.4 155.196 50.95C153.996 51.35 152.746 51.5 151.496 51.35ZM184.388 40.8H184.438C183.638 40.85 182.888 40 182.538 39.15C182.138 38.05 181.438 35 182.888 27.75C182.788 27.9 182.788 28.05 182.738 28.2C181.938 30.65 180.988 33.1 179.738 35.35C179.388 36.05 178.988 36.7 178.438 37.3C178.038 37.8 177.488 38 176.838 37.95C176.288 37.95 175.838 37.7 175.588 37.15C175.338 36.65 175.238 36.1 175.238 35.55C175.138 34.25 175.238 32.95 175.588 31.65C176.188 29.05 177.288 26.65 179.038 24.6C179.538 24 180.088 23.55 180.688 23.1C181.688 22.35 182.838 22.05 184.038 22.15C184.638 22.2 185.338 22.75 185.488 23.4C185.738 24.25 185.538 25 185.338 25.8C185.138 26.75 184.938 27.7 184.788 28.65L184.638 29.7C184.388 31.2 184.238 32.75 184.188 34.3C184.088 36.1 183.838 38.3 184.838 40.05C185.188 40.65 185.038 40.8 184.388 40.8ZM177.388 36.25C177.788 35.95 177.988 35.6 178.188 35.25C178.988 33.9 179.688 32.5 180.238 31.05C181.138 28.75 181.788 26.4 182.538 24.1C182.538 24 182.588 23.9 182.438 23.85C182.088 23.95 181.788 24.2 181.488 24.45C180.688 25.15 180.088 25.9 179.588 26.75C178.288 28.9 177.438 31.2 177.138 33.7C177.088 34.55 177.038 35.4 177.388 36.25ZM195.975 54.1C195.175 54.5 194.125 54.1 193.625 53.15C193.225 52.4 193.025 51.6 192.875 50.8C192.025 46.65 191.775 42.45 191.875 38.25C192.025 35.15 192.325 32.1 192.925 29.05C193.425 26.8 193.975 24.95 194.225 24.3C194.325 23.95 194.475 23.6 194.675 23.25C194.975 22.7 195.525 22.5 196.075 22.8C196.225 22.9 196.325 23.1 196.275 23.3C196.225 23.55 196.175 23.8 196.075 24C195.375 26.4 195.375 27 194.925 29.45C195.425 28.55 196.125 27.45 196.875 26.5C198.275 24.75 200.275 23.45 201.725 23.85C202.675 24.1 203.325 24.8 203.575 25.75C203.775 26.4 203.775 27.05 203.775 27.75C203.775 27.85 203.775 27.95 203.725 28.05C203.725 28.15 203.775 28.2 203.875 28.3C204.275 28.65 204.475 29 204.175 29.45C204.075 29.6 203.925 29.65 203.775 29.6C203.575 29.55 203.525 29.65 203.475 29.8C203.325 30.5 203.075 31.5 202.825 32.15C202.325 33.45 201.825 34.8 201.075 35.95C200.775 36.35 200.475 36.75 200.075 37.05C199.325 37.6 198.525 37.75 197.675 37.35C197.225 37.15 196.975 36.75 196.825 36.3C196.725 35.9 196.675 35.45 196.725 35.05C196.725 34.7 196.825 34.35 196.875 34.05C197.675 31.1 199.225 29.2 201.875 28.25C202.125 28.1 202.125 28.15 202.175 27.8C202.225 27.2 202.225 26.65 202.175 26.05C202.125 25.7 202.125 25.25 201.925 24.95C201.525 24.55 200.875 24.8 200.525 25.05C199.975 25.4 199.175 25.9 198.025 27.35C196.925 28.75 194.275 33 193.875 39.2C193.825 40.05 193.825 41.15 193.825 41.6C193.875 42.25 193.875 42.95 193.925 43.65L194.075 45.65C194.075 46.05 194.125 46.4 194.175 46.75C194.325 48.45 194.575 50.1 194.975 51.75C195.175 52.45 195.325 53.2 196.075 53.6C196.275 53.7 196.225 54 195.975 54.1ZM198.425 36.4C198.725 36.3 198.775 36.15 199.025 35.9C199.525 35.4 199.925 34.75 200.225 34.05C200.725 32.95 201.125 31.85 201.475 30.7C201.625 30.2 201.725 29.9 201.775 29.35C201.675 29.3 201.775 29.3 201.725 29.35C199.975 30.4 198.825 31.65 198.175 33.65C198.025 34.2 197.875 34.8 197.925 35.4C197.925 35.7 197.975 35.95 198.075 36.25C198.175 36.45 198.225 36.5 198.425 36.4ZM215.404 15.8C215.104 15.8 214.804 15.65 214.854 15.4C214.854 15.15 215.154 15.05 215.504 15.1C215.804 15.1 216.104 15.25 216.054 15.5C216.054 15.8 215.754 15.85 215.404 15.8ZM219.154 27.35C219.404 27.45 219.554 27.6 219.454 27.9C219.304 28.25 219.204 28.6 219.054 28.95C217.954 31.4 216.804 33.85 215.554 36.2C215.054 37.1 214.554 38 213.904 38.8C213.304 39.5 212.604 39.75 211.754 39.7C211.154 39.65 210.754 39.35 210.554 38.8C210.354 38.25 210.254 37.75 210.204 37.2C210.104 35.3 210.304 33.45 210.604 31.6C211.054 29.15 211.604 26.7 212.404 24.35C212.504 24 212.654 23.6 212.804 23.25C212.954 22.9 213.304 22.75 213.704 22.75C214.354 22.75 214.504 22.95 214.304 23.55C213.354 26.7 212.804 29.9 212.354 33.15C212.154 34.35 212.054 35.55 212.104 36.75C212.104 36.75 212.104 37.9 212.254 38.25C212.704 37.75 213.204 36.95 213.504 36.4C214.704 34.3 215.754 32.15 216.854 29.95C217.204 29.25 217.504 28.5 217.954 27.85C218.304 27.35 218.704 27.2 219.154 27.35ZM228.141 40.6C226.891 40.6 225.141 39.55 224.341 37.8C224.041 37.25 223.891 36.7 223.741 36.15C223.091 34.05 222.791 31.65 222.741 29.9C222.691 27.55 222.891 25.3 223.091 23.75C223.641 20.15 224.441 16.7 225.941 13.1C226.191 12.55 226.441 11.95 226.741 11.4V11.35V11.4C227.441 9.9 228.241 8.5 229.141 7.1C229.791 6.1 230.491 5.2 231.391 4.35C231.891 3.85 232.491 3.4 233.191 3.1C235.341 2.25 236.291 3.3 236.491 5.05C236.641 6.05 236.541 7.1 236.391 8.15C236.091 10.1 235.491 11.95 234.791 13.8C233.541 17.2 231.891 20.35 229.841 23.25V23.2C229.241 24.15 228.591 25 227.891 25.8C227.641 26.1 227.341 26.45 227.041 26.75C226.141 27.7 225.341 28.45 224.741 28.95V29C224.791 29.8 224.791 30.15 224.791 30.2C225.241 38.8 227.491 39.55 228.391 39.15C229.641 38.55 230.791 36.75 231.041 36.35C232.291 34.2 233.241 32.4 234.391 30.15C234.741 29.4 235.091 28.65 235.591 27.95C235.891 27.5 236.341 27.35 236.791 27.5C237.091 27.55 237.191 27.75 237.091 28.05C236.991 28.4 236.841 28.75 236.691 29.1C235.491 31.65 234.491 33.7 233.141 36.15C232.891 36.65 232.591 37.1 232.291 37.6C232.241 37.65 232.191 37.75 232.141 37.85C231.591 38.65 230.991 39.4 230.241 39.95C229.541 40.45 228.891 40.6 228.141 40.6ZM224.791 27.05C225.391 26.6 225.841 26.05 226.241 25.55C229.291 21.8 231.591 18.15 233.241 13.65C233.941 11.75 234.541 9.8 234.791 7.8C234.941 6.95 234.991 6.05 234.891 5.2C234.841 4.7 234.691 4.3 234.341 3.9C234.141 3.65 233.841 3.6 233.541 3.85C233.091 4.1 232.741 4.45 232.391 4.85C231.541 5.75 230.841 6.8 230.241 7.85C228.691 10.45 227.491 13.2 226.541 16.05C225.791 18.5 225.141 21 224.941 23.55C224.841 24.9 224.791 26.2 224.791 27.05ZM247.943 40.8H247.993C247.193 40.85 246.443 40 246.093 39.15C245.693 38.05 244.993 35 246.443 27.75C246.343 27.9 246.343 28.05 246.293 28.2C245.493 30.65 244.543 33.1 243.293 35.35C242.943 36.05 242.543 36.7 241.993 37.3C241.593 37.8 241.043 38 240.393 37.95C239.843 37.95 239.393 37.7 239.143 37.15C238.893 36.65 238.793 36.1 238.793 35.55C238.693 34.25 238.793 32.95 239.143 31.65C239.743 29.05 240.843 26.65 242.593 24.6C243.093 24 243.643 23.55 244.243 23.1C245.243 22.35 246.393 22.05 247.593 22.15C248.193 22.2 248.893 22.75 249.043 23.4C249.293 24.25 249.093 25 248.893 25.8C248.693 26.75 248.493 27.7 248.343 28.65L248.193 29.7C247.943 31.2 247.793 32.75 247.743 34.3C247.643 36.1 247.393 38.3 248.393 40.05C248.743 40.65 248.593 40.8 247.943 40.8ZM240.943 36.25C241.343 35.95 241.543 35.6 241.743 35.25C242.543 33.9 243.243 32.5 243.793 31.05C244.693 28.75 245.343 26.4 246.093 24.1C246.093 24 246.143 23.9 245.993 23.85C245.643 23.95 245.343 24.2 245.043 24.45C244.243 25.15 243.643 25.9 243.143 26.75C241.843 28.9 240.993 31.2 240.693 33.7C240.643 34.55 240.593 35.4 240.943 36.25ZM257.38 38.6C257.18 38.6 257.38 38.6 257.18 38.6C256.53 38.55 256.13 38.15 255.98 37.5C255.78 36.75 255.68 35.95 255.73 35.15C255.88 31.45 256.03 28.9 257.18 25.35C257.33 24.8 257.53 24.25 257.88 23.75C258.18 23.25 258.63 23.05 259.13 23.25C259.38 23.3 259.48 23.5 259.38 23.8C258.78 25.45 257.98 29.3 257.88 34.15C257.88 34.3 257.83 34.45 257.93 34.65C258.33 33.8 258.58 32.95 258.83 32.15C259.28 30.75 260.13 28 260.68 26.65C260.98 25.85 261.33 25.1 261.73 24.35C261.93 23.95 262.23 23.6 262.53 23.2C263.43 22.05 265.58 22.05 266.28 23.55C266.43 23.95 266.58 24.3 266.73 24.7C266.83 24.9 266.93 25.15 267.18 25.2C267.33 25.3 267.48 25.4 267.48 25.65C267.43 25.9 267.28 26.05 267.08 26.15C266.33 26.55 265.23 26.25 264.83 25.5C264.73 25.25 264.63 24.95 264.48 24.65C264.38 24.4 264.33 24.15 264.13 23.9C263.73 24.3 263.53 24.7 263.28 25.15C262.58 26.55 262.08 28 261.68 29.5C261.18 31.25 260.23 34.35 259.63 36C259.43 36.55 259.18 37.1 258.93 37.6C258.58 38.3 258.08 38.6 257.38 38.6Z" fill="white"/>
</svg>
