<svg width="361" height="131" viewBox="0 0 361 131" fill="none" xmlns="http://www.w3.org/2000/svg">
<path d="M24.7 108.6C23.5 109.1 22.2 108.9 22 107.7C21.7 106.1 21 106.3 20.1 106.5C18.8 106.8 17.6 106.9 16.3 106.5C12.8 105.6 11.6 101.6 13.6 96.8C14.7 94.1 16.3 91.9 18 90C18.4 89.5 18.8 89.1 19.2 88.7C19.8 88.1 20.1 87.5 20 86.5C19.8 82.5 19.8 78.5 19.8 74.5C19.9 67.2 20.5 59.7 21.6 52.3C22.4 46.8 23.4 41.3 24.7 35.9C26.4 29 28.6 22.3 31.2 15.6C31.3 15.4 31.9 14 32.6 12.4C31.6 13 30.5 13.6 29.5 14.2C21.7 18.8 14.9 24.5 8.6 30.9C8.4 31.1 8.2 31.3 8 31.5C6.7 33 5.4 34.7 4.6 36.6C4.1 37.8 3.9 38.8 4.9 39.9C5.4 40.4 5.2 40.8 4.5 40.9C2.3 41.2 0.399999 39.3 0.699999 37.1C0.9 35.8 1.5 34.6 2.3 33.4C4 30.8 5.9 28.4 8.1 26.2C8.4 25.9 8.7 25.7 8.9 25.4C11.1 23.3 13.4 21.3 15.8 19.3C21.7 14.7 27.9 10.7 34.8 7.49999L35.2 6.6C36 4.8 37 3.1 38.3 1.7C39.5 0.399996 40.3 0.0999937 41.3 0.599999C41.7 0.899995 41.8 1.2 41.4 1.89999C40.7 3 40.1 4.1 39.5 5.2C39.4 5.3 39.4 5.4 39.3 5.59999C40.6 5.09999 41.9 4.6 43.2 4.19999C47.6 2.7 52.2 1.8 57 1.6C61.3 1.39999 65.6 2 69.8 3.79999C75 6 77.6 10.1 77 15.3C76.6 18.2 75.7 20.9 74.4 23.4C71.7 28.9 68.2 33.7 64.1 38.1C57 45.7 49.2 52.3 40.4 57.7H40.7C40.2 58 39.7 58.2 39.3 58.9C39.9 59.2 40.5 59.1 41.1 59.1C43.9 59.3 46.5 59.9 49 61.2C50.3 61.9 51.6 62.8 52.5 64.1C54.4 66.6 54.7 69.6 53.6 73.3C52.8 75.9 51.6 78.3 50.2 80.5C48.2 83.7 45.8 86.5 43.3 89.1C38.1 94.7 32.7 99.6 26.7 103.5C25.4 104.4 25.6 104.6 25.6 106.1C25.6 107.9 25.5 108.2 24.7 108.6ZM25.7 61.5C26.3 61.2 26.8 61.1 27.4 60.9C32.7 58.3 37.7 55.2 42.4 51.8C50.5 46.1 57.9 39.5 64.1 31.8C66.9 28.4 69.3 24.7 71.1 20.7C72.3 18.1 73.2 15.5 73.1 12.5C72.9 8.1 70.3 5.2 65.7 4.3C60.5 3.29999 55.6 4 50.8 5.09999C46.1 6.2 41.7 7.89999 37.5 9.9C36.8 11.5 36.2 12.9 36.2 12.9C35.7 14.5 35.1 16 34.5 17.6C30.2 30.7 27.7 44 26 57.3C25.8 58.6 25.8 59.9 25.7 61.5ZM25.4 100.3C26.1 100.2 26.6 99.7 27.1 99.3C32 95.5 36.7 91.3 41.1 86.5C43.3 84.1 45.4 81.5 47.2 78.6C48.3 76.7 49.3 74.8 49.9 72.6C50.8 69.4 50.4 66.9 48.7 64.9C47.5 63.7 46.1 62.9 44.6 62.4C41.6 61.4 38.3 61.5 35 61.7C34.3 61.8 33.6 62.2 32.9 62.6C30.9 63.8 28.8 64.8 26.8 65.7C25.2 66.3 25.2 66.4 25 68.5C24.8 72.5 24.7 76.4 24.6 80.4C24.6 81.6 24.4 82.9 24.8 84.1C25.1 84 25.3 83.9 25.5 83.8C29.5 81.3 33.6 80 37.7 78.3C38.6 78 39.6 77.9 40.4 78.2C41 78.4 41 79.1 40.4 79.5C39.9 79.9 39.4 80.2 38.9 80.5C36.6 81.5 34.3 82.6 32 83.7C29.8 84.7 27.8 86 25.8 87.5C25 88.1 24.6 88.7 24.7 89.8C24.8 90.9 24.7 92 24.8 93.1C25 95.5 24.9 98 25.4 100.3ZM17.9 103.2C18.7 104.1 19.7 103.7 20.7 103.2C21 103 21.2 102.7 21.1 102.2C20.8 99.4 20.6 96.5 20.4 93.2C18.5 95.6 17.5 97.6 17.2 99.6C16.9 101.1 17.2 102.3 17.9 103.2ZM81.2117 77.2C80.2117 77.5 79.3117 77.3 78.7117 76.8C78.0117 76.4 77.5117 75.8 77.1117 75.1L76.5117 73.6C75.8117 71.8 75.6117 69.9 75.6117 67.9C75.5117 64 75.9117 60 76.9117 56C77.2117 54.7 77.7117 53.4 78.4117 52.1C78.7117 51.5 78.8117 51 79.0117 50.4C79.3117 49.3 79.8117 48.3 80.5117 47.3C81.5117 46 83.1117 45.4 84.8117 45.1C86.0117 44.9 86.9117 45.3 87.6117 45.9C88.6117 46.9 89.1117 48.1 89.4117 49.4C90.7117 55.3 89.9117 61.4 88.3117 67.6C87.9117 69.1 87.4117 70.6 86.8117 72C86.5117 72.8 86.1117 73.6 85.6117 74.4C84.7117 76 83.1117 76.8 81.2117 77.2ZM82.1117 74.6C82.7117 73.5 83.1117 72.5 83.4117 71.6C85.4117 65.4 86.4117 59.4 86.0117 53.4C85.9117 51.9 85.7117 50.4 85.1117 49C84.8117 48.4 84.5117 47.8 83.7117 47.4C82.9117 48.4 82.6117 49.3 82.3117 50.2C82.2117 50.5 82.2117 50.7 82.4117 50.8C83.6117 51.6 83.7117 52.8 83.9117 54C83.9117 54.6 83.7117 54.8 83.0117 55.1C82.7117 55.2 82.3117 55.3 82.0117 55.3C81.7117 55.2 81.7117 54.8 81.4117 54.6C81.0117 55.6 81.0117 56.5 80.8117 57.4C80.8117 57.7 80.8117 58.1 80.4117 58.4C79.7117 58.8 79.7117 59.2 79.7117 59.7C79.4117 62.5 79.4117 65.1 79.5117 67.8C79.6117 69.6 80.0117 71.4 80.8117 73.1C81.1117 73.6 81.3117 74.1 82.1117 74.6ZM119.502 82.3C117.802 82.4 116.202 80.9 115.402 79.2C114.602 77.6 113.202 72.8 113.302 64.1C112.502 65.8 111.602 67.5 110.502 69.1C109.802 70.3 109.002 71.4 107.902 72.4C107.002 73.2 105.902 73.5 104.402 73.4C103.202 73.3 102.202 72.8 101.602 71.8C101.102 70.9 100.802 70 100.602 69.1C100.302 66.8 100.402 64.6 100.902 62.4C102.002 57.9 104.102 53.9 107.802 50.5C108.702 49.6 109.902 48.8 111.102 48.1C112.302 47.4 113.602 47 115.002 46.8C115.802 42.1 117.002 36.6 118.802 30.7C118.902 30.4 119.002 30.1 119.002 29.8C119.102 29.6 120.202 26.2 120.502 25.3C122.002 20.9 123.702 16.6 125.702 12.5C126.602 10.8 127.502 9.1 128.702 7.6C129.902 6 131.302 4.69999 133.402 4.3C135.602 3.9 137.002 4.69999 137.302 6.6C137.402 7.8 137.502 9 137.302 10.3C137.002 13 136.502 15.7 135.702 18.4C135.602 18.8 134.302 23 133.902 24.2C131.902 30.3 129.502 36.2 126.702 42C124.402 46.7 121.902 51.3 118.802 55.7C118.602 55.9 118.502 56.2 118.402 56.5C118.302 57 118.302 57.5 118.202 57.9C118.202 58.7 118.102 59.4 118.102 60.1C117.902 63.1 117.802 66.2 117.902 69.3C118.102 72.9 118.002 77.4 120.202 80.7C121.002 81.8 120.802 82.1 119.502 82.3ZM119.602 46.9C124.102 38.9 129.602 26 131.302 20.9C132.002 18.7 132.802 15.3 133.402 12.4C133.702 10.8 133.802 9.29999 133.602 7.7C133.602 7.2 133.702 6.7 132.802 6.3C128.402 11.8 126.402 18.2 124.102 24.5L122.902 28.6C121.702 32.8 120.802 37.1 120.002 41.4C119.502 44.2 119.702 44 119.302 46.8L119.602 46.9ZM105.102 70.5C106.002 69.9 106.402 69.4 106.802 68.8C108.502 66.5 109.902 64.1 111.002 61.5C112.202 58.6 113.202 55.7 114.102 52.7C114.302 51.6 114.402 50.4 114.602 49.1C114.002 49.3 113.402 49.7 112.902 50C111.202 51.1 109.902 52.4 108.902 53.9C106.202 57.6 104.602 61.6 104.302 66C104.202 67.4 104.202 68.9 105.102 70.5ZM127.044 130.6C122.844 130.7 118.844 128.6 117.044 123.9C116.144 121.4 115.844 118.9 115.944 116.4C116.144 112.4 117.144 108.6 118.744 105C121.644 98.1 125.844 92.1 130.844 86.7C137.144 80 144.744 73.5 152.644 69C153.444 68.6 153.744 68.1 153.744 67.1C153.944 62.1 152.544 53.5 152.444 52.8C151.644 54.7 150.644 57 150.644 57C150.144 58.2 149.044 61.1 148.544 62.3C146.844 65.9 145.044 69.5 142.744 72.4C141.544 73.8 140.344 74.8 138.644 74.4C137.144 74.1 136.344 73.2 135.844 71.2C135.344 68.7 135.544 66.4 135.844 64C136.144 61.5 136.544 58.7 137.744 54.5C137.944 53.6 138.744 53.2 139.444 53.2C140.344 53.1 140.744 53.3 140.544 54.6C140.044 58.1 139.144 63 138.944 66.7C138.844 68.7 139.044 70 139.644 71.5C140.144 71.1 140.244 70.9 140.644 70.3C142.944 67.3 144.644 63.8 146.244 60.1C147.944 56.1 149.644 50.6 151.044 46.4C151.344 45.7 152.444 45.5 153.444 45.7C154.144 45.9 154.944 46 155.444 47.6C156.844 51.7 157.544 63.8 157.744 66.6C157.844 66.6 157.844 66.6 157.844 66.6C158.844 66.2 160.644 65.9 161.644 66C162.244 66 162.844 66.2 163.444 66.7C163.844 67 164.144 67.5 164.344 68.2C164.344 68.4 164.344 68.6 164.344 68.8C164.344 69.3 164.244 69.8 164.044 70.2C163.844 70.6 163.444 70.9 162.944 70.9C162.544 70.9 162.144 70.8 161.844 70.6C161.744 70.5 161.644 70.5 161.644 70.4C161.544 70.2 161.644 70 161.744 69.8C161.744 69.6 161.844 69.4 161.844 69.2C161.744 68.9 161.644 68.6 161.244 68.5C160.744 68.3 159.144 69.2 158.244 69.7C158.044 71.1 157.744 72.7 157.744 73.4C157.544 75.3 157.344 77.3 157.144 79.2C156.744 83 156.144 86.7 155.344 90.4C153.344 99.1 149.744 116.3 136.644 127C133.744 129.2 130.644 130.6 127.044 130.6ZM127.344 128.4C129.144 128 131.044 127 132.644 126C134.744 124.7 136.444 123.1 138.044 121.2C138.844 120.3 139.644 119.3 140.344 118.3C150.044 104.3 152.744 85.1 153.844 72.1L153.544 72.2C153.244 72.4 152.944 72.5 152.744 72.7C147.444 76.1 141.844 80.3 137.344 84.8C132.544 89.7 128.044 95 124.644 101.1C122.344 105.2 120.444 109.6 119.844 114.4C119.444 117.2 119.444 120 120.344 122.7C120.944 124.6 121.844 126.3 123.544 127.5C124.644 128.4 125.944 128.7 127.344 128.4ZM261.932 104.6C261.232 103.9 260.732 103 260.232 102.1C258.432 98.6 257.332 94.8 256.532 91.1C256.032 89 255.632 86.9 255.332 84.7C254.632 80 254.432 75.3 254.532 70.5C254.632 65.8 255.132 61 255.732 56.3C255.932 54.5 256.232 52.7 256.532 50.8C256.532 50.8 257.132 47.1 257.232 46.5C257.332 46 257.432 45.5 257.532 45C248.032 45.9 238.632 48.2 229.332 51.1C227.432 51.7 225.832 52.2 224.232 52.7C224.232 52.7 224.132 52.8 223.832 52.9C222.132 63.1 220.432 73.2 219.632 82.2C218.432 96 219.732 100.2 219.732 101.5C219.732 102.9 219.132 104.6 217.932 104.4C217.532 104.4 217.232 104.2 216.932 104.1C215.732 104.1 215.332 103.2 215.132 102.1C214.532 98.5 214.332 94.8 214.232 91.1C214.232 90.1 214.232 89.1 214.232 88.1C214.332 78.2 216.132 66.3 218.232 54.7C214.132 56.1 210.332 57.5 204.032 60.2C202.732 60.7 201.232 61.3 199.832 61.1C199.432 61 199.032 60.8 198.832 60.5C198.032 59.3 200.432 58.5 201.132 58.2C208.132 55.2 213.632 52.9 218.932 50.9C220.532 42.8 222.132 35.1 223.332 28.4C223.632 26.2 227.932 1.39999 219.932 5.2C218.032 6.09999 216.332 7.4 214.832 8.7C208.932 13.8 204.132 20.2 199.832 26.7C197.232 30.8 194.432 35.1 193.132 39.9C192.632 41.4 192.332 42.9 192.432 44.5C192.532 46 192.832 46.3 194.132 45.9C194.832 45.8 195.432 45.6 196.032 45.7C196.332 45.8 196.632 45.9 196.732 46.2C196.832 46.4 196.632 46.7 196.332 46.9C194.632 48 192.632 48.4 190.632 47.8C189.332 47.5 188.732 46.4 188.632 45C188.232 40.5 190.632 35.7 192.632 31.9C194.632 27.8 197.132 24 199.932 20.5C202.532 16.9 205.432 13.4 208.632 10.2C210.532 8.3 212.532 6.49999 214.732 5C217.032 3.5 219.432 2.5 222.132 2.6C226.532 2.6 228.132 6.3 228.732 10.5C229.232 14.3 229.032 18.3 228.632 22.1C227.732 30.3 226.132 39.6 224.532 48.9L224.932 48.8C229.832 47.2 234.932 45.8 241.332 44.4C248.032 43 253.532 42.1 258.132 41.6C260.032 31.9 262.132 24.2 265.232 14.1C265.532 12.9 265.832 12 266.332 10.8C266.832 9.6 267.132 9.5 268.432 9.5C269.232 9.6 269.632 10 269.532 10.6C269.532 11.1 269.432 11.6 269.332 12C267.932 18.1 264.532 35.1 263.432 41.1C274.432 40.5 278.132 42.6 279.232 43C281.932 44.2 281.332 48.2 278.332 48.3C278.032 48.3 277.632 48.2 277.432 48C276.832 47.3 277.832 46.6 277.532 46C277.432 45.8 277.132 45.7 276.932 45.7C272.532 44.1 267.332 44.4 262.832 44.6L262.332 48C262.032 50 261.732 52.1 261.432 54.2C260.832 58.9 260.332 63.7 260.032 68.5C259.732 73.2 259.732 78 260.232 82.7C260.532 86.5 261.132 90.2 261.932 93.8C262.332 95.4 262.732 97 263.232 98.5C263.632 99.6 264.032 100.7 264.732 101.7C265.132 101.1 265.032 100.5 265.132 100C265.332 98.9 266.832 98.3 267.832 98.9C268.032 99.1 268.132 99.3 268.232 99.6C268.232 101.2 268.032 102.7 267.232 104.1C266.332 105.8 263.432 106 261.932 104.6ZM297.471 81.6H297.571C295.971 81.7 294.471 80 293.771 78.3C292.971 76.1 291.571 70 294.471 55.5C294.271 55.8 294.271 56.1 294.171 56.4C292.571 61.3 290.671 66.2 288.171 70.7C287.471 72.1 286.671 73.4 285.571 74.6C284.771 75.6 283.671 76 282.371 75.9C281.271 75.9 280.371 75.4 279.871 74.3C279.371 73.3 279.171 72.2 279.171 71.1C278.971 68.5 279.171 65.9 279.871 63.3C281.071 58.1 283.271 53.3 286.771 49.2C287.771 48 288.871 47.1 290.071 46.2C292.071 44.7 294.371 44.1 296.771 44.3C297.971 44.4 299.371 45.5 299.671 46.8C300.171 48.5 299.771 50 299.371 51.6C298.971 53.5 298.571 55.4 298.271 57.3L297.971 59.4C297.471 62.4 297.171 65.5 297.071 68.6C296.871 72.2 296.371 76.6 298.371 80.1C299.071 81.3 298.771 81.6 297.471 81.6ZM283.471 72.5C284.271 71.9 284.671 71.2 285.071 70.5C286.671 67.8 288.071 65 289.171 62.1C290.971 57.5 292.271 52.8 293.771 48.2C293.771 48 293.871 47.8 293.571 47.7C292.871 47.9 292.271 48.4 291.671 48.9C290.071 50.3 288.871 51.8 287.871 53.5C285.271 57.8 283.571 62.4 282.971 67.4C282.871 69.1 282.771 70.8 283.471 72.5ZM322.746 31.6C322.146 31.6 321.546 31.3 321.646 30.8C321.646 30.3 322.246 30.1 322.946 30.2C323.546 30.2 324.146 30.5 324.046 31C324.046 31.6 323.446 31.7 322.746 31.6ZM330.246 54.7C330.746 54.9 331.046 55.2 330.846 55.8C330.546 56.5 330.346 57.2 330.046 57.9C327.846 62.8 325.546 67.7 323.046 72.4C322.046 74.2 321.046 76 319.746 77.6C318.546 79 317.146 79.5 315.446 79.4C314.246 79.3 313.446 78.7 313.046 77.6C312.646 76.5 312.446 75.5 312.346 74.4C312.146 70.6 312.546 66.9 313.146 63.2C314.046 58.3 315.146 53.4 316.746 48.7C316.946 48 317.246 47.2 317.546 46.5C317.846 45.8 318.546 45.5 319.346 45.5C320.646 45.5 320.946 45.9 320.546 47.1C318.646 53.4 317.546 59.8 316.646 66.3C316.246 68.7 316.046 71.1 316.146 73.5C316.146 73.5 316.146 75.8 316.446 76.5C317.346 75.5 318.346 73.9 318.946 72.8C321.346 68.6 323.446 64.3 325.646 59.9C326.346 58.5 326.946 57 327.846 55.7C328.546 54.7 329.346 54.4 330.246 54.7ZM339.92 77.2C339.52 77.2 339.92 77.2 339.52 77.2C338.22 77.1 337.42 76.3 337.12 75C336.72 73.5 336.52 71.9 336.62 70.3C336.92 62.9 337.22 57.8 339.52 50.7C339.82 49.6 340.22 48.5 340.92 47.5C341.52 46.5 342.42 46.1 343.42 46.5C343.92 46.6 344.12 47 343.92 47.6C342.72 50.9 341.12 58.6 340.92 68.3C340.92 68.6 340.82 68.9 341.02 69.3C341.82 67.6 342.32 65.9 342.82 64.3C343.72 61.5 345.42 56 346.52 53.3C347.12 51.7 347.82 50.2 348.62 48.7C349.02 47.9 349.62 47.2 350.22 46.4C352.02 44.1 356.32 44.1 357.72 47.1C358.02 47.9 358.32 48.6 358.62 49.4C358.82 49.8 359.02 50.3 359.52 50.4C359.82 50.6 360.12 50.8 360.12 51.3C360.02 51.8 359.72 52.1 359.32 52.3C357.82 53.1 355.62 52.5 354.82 51C354.62 50.5 354.42 49.9 354.12 49.3C353.92 48.8 353.82 48.3 353.42 47.8C352.62 48.6 352.22 49.4 351.72 50.3C350.32 53.1 349.32 56 348.52 59C347.52 62.5 345.62 68.7 344.42 72C344.02 73.1 343.52 74.2 343.02 75.2C342.32 76.6 341.32 77.2 339.92 77.2Z" fill="#541E43"/>
</svg>
