<svg width="1440" height="495" viewBox="0 0 1440 495" fill="none" xmlns="http://www.w3.org/2000/svg">
<g opacity="0.05" clip-path="url(#clip0_420_1603)">
<path opacity="0.5" d="M-42.6555 495L-46.9971 494.207C-39.6832 446.761 -0.799549 399.091 57.0125 366.713C114.537 334.484 191.716 316.888 263.512 319.506C303.436 321.003 342.005 328.394 379.3 335.546C426.265 344.523 474.818 353.86 525.7 351.107C606.809 346.618 674.825 314.629 746.854 280.679C804.104 253.747 863.272 225.797 929.206 213.528C1023.71 195.947 1116.85 212.555 1207.05 228.625C1244.84 235.358 1283.91 242.316 1322.62 246.685C1487.36 265.283 1671.87 235.867 1816.27 167.997L1818.01 172.411C1673 240.58 1487.65 270.146 1322.21 251.458C1283.39 247.089 1244.25 240.101 1206.39 233.353C1116.6 217.358 1023.75 200.795 930.001 218.271C864.601 230.435 805.652 258.221 748.648 285.093C679.441 317.711 607.864 351.436 525.974 355.91C474.599 358.723 425.799 349.341 378.602 340.289C341.444 333.152 303.039 325.776 263.416 324.309C192.346 321.631 115.961 339.107 59.0807 370.977C2.43279 402.682 -35.5745 449.051 -42.6555 495Z" fill="#7F6678"/>
<path opacity="0.5" d="M20.4708 396.039L18.7041 394.543C91.993 286.081 229.298 222.999 395.352 221.443C474.791 220.725 554.832 232.096 632.298 243.109C692.48 251.667 754.715 260.51 816.239 263.622C1149.48 280.515 1466.28 131.549 1705.13 -0.0597534L1706.11 2.07976C1467.1 133.749 1149.92 282.879 816.198 266.016C754.565 262.904 692.302 254.046 632.079 245.488C554.708 234.475 474.777 223.149 395.448 223.852C230.01 225.453 93.3488 288.19 20.4708 396.039Z" fill="#7F6678"/>
<path opacity="0.5" d="M114.88 423.106C23.8677 423.106 -57.1732 389.081 -109 327.257L-107.37 325.641C-44.9973 400.049 60.1492 433.834 173.924 416.029C269.127 401.066 358.482 355.237 444.905 310.873L460.478 302.868C556.092 253.911 650.281 209.428 751.155 202.995C839.961 197.339 928.385 222.206 1013.93 246.251C1103.04 271.313 1195.16 297.227 1287.38 288.355C1392.4 277.849 1489.68 223.545 1559 136.726L1560.66 138.222C1490.96 225.514 1393.16 280.113 1287.57 290.674C1195.01 299.577 1102.67 273.617 1013.38 248.51C928.001 224.57 839.729 199.658 751.292 205.329C650.802 211.732 556.804 256.126 461.409 304.978L445.837 312.968C359.276 357.406 269.771 403.355 174.239 418.333C154.581 421.456 134.745 423.051 114.88 423.106Z" fill="#7F6678"/>
</g>
<defs>
<clipPath id="clip0_420_1603">
<rect width="1927" height="495" fill="white" transform="translate(-109)"/>
</clipPath>
</defs>
</svg>
