<svg width="1440" height="638" viewBox="0 0 1440 638" fill="none" xmlns="http://www.w3.org/2000/svg">
<g opacity="0.25" clip-path="url(#clip0_406_1051)">
<path d="M-132.725 529.767L-136.956 528.81C-127.338 486.472 -86.6475 445.692 -28.1147 419.744C30.1275 393.915 106.96 382.365 177.464 388.728C216.668 392.302 254.238 401.112 290.565 409.648C336.314 420.355 383.608 431.46 433.81 431.817C513.837 432.363 582.406 407.268 654.993 380.696C712.695 359.624 772.336 337.742 837.833 330.365C931.711 319.795 1022.5 339.951 1110.42 359.458C1147.26 367.631 1185.35 376.078 1223.21 382.173C1384.34 408.114 1567.38 391.913 1712.92 338.805L1714.4 342.879C1568.25 396.222 1384.37 412.511 1222.56 386.45C1184.58 380.349 1146.42 371.871 1109.52 363.694C1021.99 344.263 931.49 324.164 838.359 334.681C773.393 341.994 713.976 363.74 656.52 384.772C586.763 410.301 514.632 436.695 433.821 436.159C383.131 435.828 335.597 424.655 289.623 413.868C253.429 405.366 216.02 396.579 177.111 393.049C107.324 386.673 31.2794 398.159 -26.3111 423.7C-83.6506 449.107 -123.412 488.764 -132.725 529.767Z" fill="#541E43"/>
<path d="M680.828 511.879C673.579 511.468 666.38 510.87 659.193 510.071C559.511 499.012 469.717 450.648 378.864 397.815L365.227 389.889C282.782 341.833 197.457 292.14 103.362 273.148C-7.17366 250.845 -116.421 281.424 -175.023 351.063L-175.862 350.366C-145.175 313.861 -101.269 287.679 -48.9103 274.54C-0.912147 262.492 51.8588 261.642 103.57 272.092C197.853 291.107 283.217 340.843 365.78 388.946L379.403 396.886C470.153 449.632 559.844 497.909 659.322 508.983C774.424 521.794 899.472 484.578 1041.59 395.141C1085.61 367.437 1128.81 336.739 1170.59 307.056C1237.66 259.359 1307.08 210.051 1381.53 171.942C1463.67 129.886 1623.98 68.2567 1774.14 127.804L1773.74 128.823C1623.94 69.4175 1464.05 130.935 1382.03 172.889C1307.63 210.921 1238.25 260.272 1171.15 307.94C1129.36 337.622 1086.16 368.334 1042.09 396.062C908.678 480.055 790.208 518.077 680.828 511.879Z" fill="#541E43"/>
<path d="M-65.5651 444.141L-67.2271 442.695C10.4176 349.063 148.73 299.872 312.185 307.729C390.312 311.507 468.549 326.219 544.203 340.46C602.977 351.526 663.758 362.963 724.13 369.198C1051.14 402.998 1370.43 286.452 1612.15 181.197L1613.01 183.18C1371.12 288.547 1051.45 405.152 723.968 371.352C663.487 365.112 602.694 353.66 543.866 342.591C468.305 328.369 390.242 313.694 312.156 309.905C149.304 302.15 11.6447 351.025 -65.5651 444.141Z" fill="#541E43"/>
<path opacity="0.48" d="M365.087 526.888C282.793 522.224 198.348 494.692 124.194 446.578C25.2113 382.385 -59.4896 281.594 -120.835 155.121L-118.889 154.177C-57.713 280.302 26.7621 380.782 125.378 444.766C238.428 518.114 375.492 543.435 492.045 512.499C572.406 491.169 644.127 444.575 713.49 399.51C784.173 353.586 857.269 306.096 939.633 285.204C1077.83 250.234 1219.54 292.344 1364.66 342.491L1367.76 343.56C1504.79 390.922 1646.49 439.875 1787.67 414.08L1788.06 416.212C1646.31 442.123 1504.35 393.061 1367.05 345.615L1363.95 344.547C1219.14 294.553 1077.78 252.53 940.16 287.357C858.115 308.105 785.213 355.498 714.671 401.335C645.168 446.486 573.307 493.168 492.607 514.519C451.017 525.338 407.98 529.512 365.087 526.888Z" fill="#541E43"/>
<path opacity="0.34" d="M1060.46 506.603C938.098 499.835 817.86 471.716 705.181 423.516C656.466 402.661 608.451 377.788 562.026 353.736C519.619 331.764 475.781 309.049 431.522 289.46C320.11 240.168 224.499 221.213 139.126 231.507C31.9177 244.486 -61.7517 310.298 -99.5328 399.211L-101.526 398.368C-81.9485 352.281 -47.9659 312.026 -3.35316 281.949C39.2544 253.47 87.9848 235.463 138.867 229.397C224.621 219.056 320.622 238.061 432.416 287.523C476.728 307.128 520.591 329.872 563.038 351.846C609.424 375.883 657.399 400.739 706.049 421.564C945.114 523.881 1222.35 533.48 1466.64 447.912L1467.35 449.954C1344.89 492.862 1216.01 512.294 1084.31 507.738C1076.33 507.43 1068.38 507.052 1060.46 506.603Z" fill="#541E43"/>
<path opacity="0.25" d="M544.983 537.813C518.353 536.4 492.027 531.47 466.689 523.152C409.455 504.235 356.49 466.532 305.252 430.076C244.905 387.127 182.505 342.709 113.63 329.785C11.808 310.694 -95.6448 368.057 -153.897 472.539L-155.784 471.485C-97.0936 366.19 11.2618 308.405 114.021 327.657C183.378 340.675 245.948 385.171 306.514 428.308C357.609 464.675 410.472 502.277 467.36 521.094C540.849 545.395 624.718 540.398 723.726 505.871C771.071 489.364 817.948 467.759 863.283 446.879C897.749 431.008 933.368 414.594 968.991 400.506C1145.67 330.621 1336.43 312.519 1520.66 348.086L1520.25 350.213C1336.38 314.721 1146.08 332.795 969.784 402.485C934.217 416.562 898.626 432.951 864.187 448.823C818.809 469.728 771.878 491.344 724.435 507.899C658.429 530.935 599.06 540.878 544.983 537.813Z" fill="#541E43"/>
<path d="M1116.71 473.763C1107.1 473.219 1097.51 472.554 1087.92 471.767C932.171 459.1 778.452 415.173 643.39 344.756C637.913 341.917 632.414 339.008 626.861 336.084C559.182 300.387 489.179 263.463 418.097 282.573C378.986 293.082 346.418 319.839 314.927 345.696C282.06 372.706 248.074 400.613 206.572 410.162C145.411 424.277 74.9759 394.509 27.01 334.424C-16.2084 280.261 -37.719 210.409 -56.7106 148.829L-54.6331 148.189C-35.7138 209.617 -14.2576 279.235 28.6819 333.072C76.0869 392.557 145.731 421.969 206.097 408.039C247.093 398.61 280.881 370.855 313.549 344.009C345.225 317.986 377.964 291.077 417.528 280.445C489.434 261.124 559.817 298.245 627.877 334.14C633.416 337.068 638.921 339.959 644.392 342.811C921.174 487.119 1249.97 513.867 1546.44 416.219L1547.12 418.272C1411.36 463.023 1263.14 482.062 1116.71 473.763Z" fill="#541E43"/>
<path opacity="0.58" d="M25.9395 473.778C-63.6045 468.703 -141.601 433.53 -189.434 374.913L-187.748 373.548C-130.18 444.063 -28.4544 480.364 84.3948 470.667C178.826 462.495 269.08 426.187 356.374 391.037L372.104 384.707C468.688 345.945 563.616 311.119 663.189 310.987C750.852 310.843 836.592 338.192 919.519 364.61C1005.91 392.118 1095.22 420.67 1186.41 417.723C1290.27 414.114 1388.75 370.613 1461.39 296.259L1462.95 297.7C1389.93 372.494 1290.91 416.266 1186.47 419.918C1094.95 422.778 1005.43 394.241 918.863 366.642C836.08 340.313 750.516 312.948 663.202 313.125C564.007 313.291 469.258 348.046 372.908 386.74L357.165 393.07C269.732 428.28 179.324 464.687 84.5682 472.854C65.0717 474.549 45.4796 474.858 25.9395 473.778Z" fill="#541E43"/>
</g>
<defs>
<clipPath id="clip0_406_1051">
<rect width="1976.65" height="526.911" fill="white" transform="translate(-168.187) rotate(3.24358)"/>
</clipPath>
</defs>
</svg>
