<svg width="1440" height="638" viewBox="0 0 1440 638" fill="none" xmlns="http://www.w3.org/2000/svg">
<g opacity="0.2" clip-path="url(#clip0_227_139)">
<path d="M-140.725 529.766L-144.956 528.81C-135.338 486.472 -94.6475 445.692 -36.1147 419.744C22.1275 393.915 98.9598 382.365 169.464 388.727C208.668 392.302 246.238 401.111 282.565 409.648C328.314 420.355 375.608 431.46 425.81 431.817C505.837 432.363 574.406 407.268 646.993 380.696C704.695 359.624 764.336 337.742 829.833 330.364C923.711 319.794 1014.5 339.95 1102.42 359.458C1139.26 367.631 1177.35 376.078 1215.21 382.172C1376.34 408.114 1559.38 391.913 1704.92 338.805L1706.4 342.878C1560.25 396.222 1376.37 412.511 1214.56 386.45C1176.58 380.348 1138.42 371.871 1101.52 363.694C1013.99 344.263 923.49 324.163 830.359 334.681C765.393 341.994 705.976 363.74 648.52 384.772C578.763 410.3 506.632 436.695 425.821 436.159C375.131 435.828 327.597 424.655 281.623 413.868C245.429 405.366 208.02 396.579 169.111 393.049C99.324 386.673 23.2794 398.159 -34.3111 423.7C-91.6506 449.107 -131.412 488.763 -140.725 529.766Z" fill="white"/>
<path d="M672.829 511.879C665.579 511.468 658.38 510.87 651.193 510.071C551.511 499.012 461.717 450.648 370.864 397.815L357.227 389.888C274.783 341.833 189.457 292.139 95.3623 273.148C-15.1732 250.845 -124.42 281.424 -183.023 351.063L-183.862 350.366C-153.174 313.861 -109.269 287.679 -56.9098 274.54C-8.91166 262.492 43.8593 261.642 95.5709 272.092C189.854 291.107 275.218 340.843 357.781 388.946L371.404 396.886C462.153 449.632 551.844 497.909 651.322 508.983C766.424 521.794 891.472 484.578 1033.59 395.141C1077.61 367.437 1120.81 336.739 1162.59 307.056C1229.66 259.359 1299.09 210.051 1373.53 171.941C1455.67 129.886 1615.98 68.2566 1766.14 127.804L1765.74 128.823C1615.94 69.4175 1456.05 130.935 1374.03 172.889C1299.63 210.921 1230.25 260.272 1163.15 307.94C1121.36 337.622 1078.16 368.334 1034.1 396.062C900.678 480.055 782.209 518.077 672.829 511.879Z" fill="white"/>
<path d="M-73.5646 444.141L-75.2265 442.695C2.41817 349.063 140.731 299.872 304.186 307.729C382.312 311.507 460.549 326.219 536.204 340.46C594.978 351.526 655.758 362.963 716.131 369.197C1043.14 402.998 1362.43 286.452 1604.15 181.197L1605.01 183.18C1363.12 288.547 1043.45 405.152 715.968 371.352C655.488 365.112 594.694 353.66 535.867 342.591C460.306 328.369 382.242 313.694 304.157 309.905C141.304 302.149 3.64528 351.025 -73.5646 444.141Z" fill="white"/>
<path opacity="0.48" d="M357.088 526.887C274.794 522.224 190.348 494.691 116.194 446.578C17.2121 382.384 -67.4888 281.594 -128.834 155.121L-126.888 154.176C-65.7122 280.302 18.7629 380.782 117.379 444.765C230.429 518.114 367.492 543.435 484.046 512.499C564.407 491.169 636.128 444.574 705.491 399.509C776.174 353.586 849.27 306.096 931.634 285.204C1069.83 250.233 1211.54 292.344 1356.66 342.491L1359.76 343.559C1496.79 390.922 1638.49 439.875 1779.67 414.08L1780.06 416.212C1638.31 442.123 1496.35 393.061 1359.05 345.615L1355.95 344.547C1211.14 294.553 1069.78 252.53 932.161 287.357C850.116 308.104 777.214 355.498 706.672 401.334C637.169 446.486 565.307 493.167 484.608 514.519C443.018 525.338 399.98 529.512 357.088 526.887Z" fill="white"/>
<path opacity="0.34" d="M1052.46 506.603C930.098 499.835 809.86 471.717 697.181 423.516C648.466 402.661 600.451 377.788 554.025 353.736C511.619 331.764 467.781 309.049 423.522 289.46C312.11 240.168 216.499 221.213 131.126 231.508C23.9176 244.487 -69.7518 310.299 -107.533 399.212L-109.526 398.368C-89.9486 352.281 -55.9661 312.026 -11.3533 281.949C31.2543 253.47 79.9847 235.464 130.867 229.397C216.621 219.056 312.621 238.061 424.416 287.523C468.728 307.128 512.591 329.872 555.038 351.846C601.424 375.883 649.399 400.74 698.049 421.564C937.114 523.881 1214.35 533.48 1458.64 447.913L1459.35 449.954C1336.89 492.862 1208.01 512.294 1076.31 507.738C1068.33 507.43 1060.38 507.052 1052.46 506.603Z" fill="white"/>
<path opacity="0.25" d="M536.983 537.813C510.353 536.4 484.027 531.47 458.689 523.152C401.456 504.235 348.49 466.532 297.252 430.076C236.905 387.127 174.506 342.709 105.631 329.785C3.80847 310.694 -103.644 368.057 -161.896 472.539L-163.783 471.485C-105.093 366.19 3.26226 308.405 106.022 327.657C175.378 340.676 237.949 385.171 298.515 428.308C349.609 464.675 402.472 502.277 459.36 521.094C532.85 545.395 616.719 540.398 715.726 505.871C763.071 489.364 809.948 467.759 855.283 446.879C889.75 431.008 925.369 414.594 960.991 400.506C1137.67 330.621 1328.43 312.519 1512.66 348.086L1512.25 350.214C1328.38 314.721 1138.08 332.795 961.785 402.485C926.217 416.562 890.626 432.951 856.187 448.823C810.81 469.729 763.878 491.344 716.436 507.899C650.43 530.935 591.06 540.878 536.983 537.813Z" fill="white"/>
<path d="M1108.71 473.764C1099.1 473.22 1089.51 472.554 1079.92 471.767C924.171 459.1 770.452 415.173 635.39 344.756C629.913 341.917 624.414 339.009 618.861 336.084C551.182 300.387 481.179 263.463 410.096 282.573C370.986 293.083 338.417 319.839 306.927 345.697C274.06 372.707 240.074 400.614 198.572 410.163C137.411 424.277 66.9757 394.509 19.0099 334.424C-24.2085 280.261 -45.7191 210.41 -64.7108 148.829L-62.6332 148.19C-43.714 209.617 -22.2578 279.235 20.6818 333.072C68.0867 392.557 137.731 421.969 198.097 408.039C239.093 398.611 272.881 370.855 305.549 344.009C337.225 317.986 369.964 291.077 409.528 280.445C481.433 261.124 551.817 298.246 619.877 334.14C625.416 337.069 630.921 339.959 636.392 342.811C913.174 487.12 1241.97 513.867 1538.44 416.219L1539.12 418.273C1403.36 463.023 1255.14 482.063 1108.71 473.764Z" fill="white"/>
<path opacity="0.58" d="M17.9402 473.778C-71.6038 468.703 -149.6 433.531 -197.433 374.914L-195.747 373.549C-138.179 444.064 -36.4537 480.365 76.3955 470.667C170.827 462.495 261.08 426.187 348.375 391.037L364.105 384.707C460.689 345.945 555.617 311.119 655.189 310.988C742.852 310.844 828.592 338.192 911.519 364.611C997.913 392.118 1087.22 420.67 1178.41 417.724C1282.27 414.114 1380.76 370.614 1453.4 296.26L1454.95 297.7C1381.93 372.495 1282.92 416.267 1178.47 419.918C1086.95 422.778 997.428 394.241 910.863 366.643C828.08 340.314 742.517 312.948 655.203 313.125C556.007 313.292 461.259 348.046 364.909 386.74L349.166 393.07C261.732 428.28 171.324 464.687 76.5689 472.854C57.0724 474.549 37.4803 474.858 17.9402 473.778Z" fill="white"/>
</g>
<defs>
<clipPath id="clip0_227_139">
<rect width="1976.65" height="526.911" fill="white" transform="translate(-176.187) rotate(3.24358)"/>
</clipPath>
</defs>
</svg>
