<svg width="1440" height="467" viewBox="0 0 1440 467" fill="none" xmlns="http://www.w3.org/2000/svg">
<mask id="mask0_914_2297" style="mask-type:alpha" maskUnits="userSpaceOnUse" x="0" y="0" width="1440" height="467">
<rect width="1440" height="467" fill="white"/>
</mask>
<g mask="url(#mask0_914_2297)">
<path d="M1512.48 404.081L1516.72 403.124C1507.1 360.786 1466.41 320.006 1407.87 294.058C1349.63 268.229 1272.8 256.68 1202.3 263.042C1163.09 266.616 1125.52 275.426 1089.19 283.963C1043.45 294.669 996.151 305.775 945.949 306.131C865.923 306.677 797.353 281.582 724.766 255.011C667.064 233.939 607.423 212.056 541.926 204.679C448.048 194.109 357.264 214.265 269.335 233.772C232.5 241.946 194.41 250.393 156.552 256.487C-4.58045 282.428 -187.622 266.228 -333.159 213.119L-334.645 217.193C-188.486 270.537 -4.61517 286.826 157.2 260.764C195.18 254.663 233.335 246.185 270.238 238.008C357.765 218.578 448.269 198.478 541.4 208.996C606.366 216.309 665.783 238.055 723.24 259.087C792.996 284.615 865.127 311.009 945.938 310.473C996.628 310.143 1044.16 298.97 1090.14 288.183C1126.33 279.681 1163.74 270.894 1202.65 267.363C1272.44 260.987 1348.48 272.473 1406.07 298.015C1463.41 323.422 1503.17 363.078 1512.48 404.081Z" fill="#B8BFB2"/>
<path d="M698.93 386.193C706.18 385.782 713.379 385.185 720.566 384.385C820.248 373.327 910.042 324.963 1000.89 272.13L1014.53 264.203C1096.98 216.147 1182.3 166.454 1276.4 147.463C1386.93 125.159 1496.18 155.739 1554.78 225.377L1555.62 224.681C1524.93 188.175 1481.03 161.993 1428.67 148.854C1380.67 136.806 1327.9 135.956 1276.19 146.406C1181.91 165.422 1096.54 215.158 1013.98 263.261L1000.36 271.2C909.606 323.946 819.915 372.223 720.437 383.297C605.335 396.109 480.287 358.892 338.166 269.455C294.147 241.752 250.946 211.054 209.167 181.371C142.102 133.674 72.6742 84.3659 -1.76991 46.2561C-83.9134 4.20092 -244.223 -57.4288 -394.38 2.11881L-393.984 3.1377C-244.184 -56.2679 -84.2866 5.24987 -2.27049 47.2041C72.1286 85.2353 141.505 134.586 208.609 182.254C250.401 211.937 293.603 242.648 337.664 270.376C471.081 354.37 589.551 392.392 698.93 386.193Z" fill="#B8BFB2"/>
<path d="M1445.32 318.456L1446.99 317.009C1369.34 223.377 1231.03 174.187 1067.57 182.044C989.447 185.822 911.21 200.534 835.556 214.775C776.782 225.841 716.001 237.278 655.628 243.512C328.621 277.312 9.32956 160.767 -232.388 55.5119L-233.249 57.4945C8.63702 162.861 328.311 279.467 655.791 245.667C716.272 239.426 777.065 227.975 835.893 216.906C911.454 202.684 989.517 188.009 1067.6 184.219C1230.45 176.464 1368.11 225.34 1445.32 318.456Z" fill="#B8BFB2"/>
<path opacity="0.48" d="M1014.67 401.202C1096.97 396.538 1181.41 369.006 1255.57 320.893C1354.55 256.699 1439.25 155.909 1500.59 29.4355L1498.65 28.4909C1437.47 154.617 1353 255.097 1254.38 319.08C1141.33 392.428 1004.27 417.75 887.714 386.814C807.353 365.484 735.632 318.889 666.269 273.824C595.587 227.901 522.49 180.41 440.126 159.518C301.931 124.548 160.221 166.658 15.1015 216.806L11.9987 217.874C-125.033 265.237 -266.733 314.19 -407.91 288.395L-408.303 290.527C-266.551 316.438 -124.587 267.375 12.7099 219.93L15.8129 218.862C160.617 168.867 301.98 126.844 439.6 161.672C521.644 182.419 594.546 229.812 665.088 275.649C734.592 320.801 806.453 367.482 887.153 388.833C928.742 399.652 971.78 403.827 1014.67 401.202Z" fill="#B8BFB2"/>
<path opacity="0.34" d="M319.298 380.917C441.662 374.15 561.899 346.031 674.578 297.831C723.294 276.975 771.308 252.103 817.734 228.05C860.14 206.079 903.978 183.363 948.237 163.774C1059.65 114.483 1155.26 95.5271 1240.63 105.822C1347.84 118.801 1441.51 184.613 1479.29 273.526L1481.29 272.683C1461.71 226.595 1427.73 186.341 1383.11 156.264C1340.5 127.784 1291.77 109.778 1240.89 103.711C1155.14 93.3703 1059.14 112.375 947.343 161.837C903.031 181.442 859.168 204.186 816.721 226.16C770.335 250.197 722.36 275.054 673.711 295.878C434.645 398.195 157.408 407.794 -86.8842 322.227L-87.5931 324.269C34.8709 367.176 163.75 386.608 295.448 382.052C303.425 381.745 311.375 381.366 319.298 380.917Z" fill="#B8BFB2"/>
<path opacity="0.25" d="M834.776 412.127C861.406 410.714 887.732 405.784 913.07 397.466C970.304 378.549 1023.27 340.846 1074.51 304.39C1134.85 261.441 1197.25 217.023 1266.13 204.099C1367.95 185.008 1475.4 242.371 1533.66 346.853L1535.54 345.799C1476.85 240.504 1368.5 182.719 1265.74 201.971C1196.38 214.99 1133.81 259.485 1073.24 302.623C1022.15 338.989 969.287 376.592 912.399 395.408C838.91 419.71 755.041 414.712 656.033 380.185C608.688 363.678 561.811 342.074 516.476 321.193C482.01 305.322 446.391 288.908 410.768 274.821C234.093 204.936 43.3326 186.833 -140.898 222.401L-140.494 224.528C43.3762 189.035 233.676 207.11 409.974 276.799C445.542 290.877 481.133 307.265 515.572 323.138C560.95 344.043 607.881 365.658 655.324 382.213C721.329 405.249 780.699 415.192 834.776 412.127Z" fill="#B8BFB2"/>
<path d="M263.052 348.078C272.655 347.534 282.252 346.868 291.841 346.081C447.589 333.414 601.307 289.487 736.37 219.07C741.846 216.231 747.346 213.323 752.898 210.398C820.578 174.701 890.58 137.777 961.663 156.887C1000.77 167.397 1033.34 194.153 1064.83 220.011C1097.7 247.021 1131.68 274.928 1173.19 284.477C1234.35 298.591 1304.78 268.823 1352.75 208.738C1395.97 154.575 1417.48 84.7238 1436.47 23.1431L1434.39 22.5035C1415.47 83.9313 1394.02 153.549 1351.08 207.386C1303.67 266.871 1234.03 296.283 1173.66 282.353C1132.67 272.925 1098.88 245.169 1066.21 218.323C1034.53 192.3 1001.8 165.391 962.232 154.759C890.326 135.438 819.942 172.56 751.882 208.454C746.343 211.383 740.838 214.273 735.367 217.126C458.586 361.434 129.786 388.182 -166.683 290.533L-167.364 292.587C-31.6018 337.337 116.615 356.377 263.052 348.078Z" fill="#B8BFB2"/>
<path opacity="0.58" d="M1353.82 348.092C1443.36 343.018 1521.36 307.845 1569.19 249.228L1567.51 247.863C1509.94 318.378 1408.21 354.679 1295.36 344.981C1200.93 336.809 1110.68 300.501 1023.39 265.351L1007.66 259.021C911.072 220.259 816.144 185.433 716.571 185.302C628.908 185.158 543.168 212.507 460.241 238.925C373.847 266.432 284.539 294.984 193.351 292.038C89.4869 288.428 -8.99539 244.928 -81.6352 170.574L-83.1893 172.014C-10.1733 246.809 88.8452 290.581 193.286 294.232C284.807 297.092 374.333 268.555 460.897 240.957C543.68 214.628 629.243 187.262 716.557 187.439C815.753 187.606 910.501 222.361 1006.85 261.055L1022.59 267.384C1110.03 302.594 1200.44 339.001 1295.19 347.168C1314.69 348.863 1334.28 349.172 1353.82 348.092V348.092Z" fill="#B8BFB2"/>
<rect x="1471" y="492" width="1673" height="508" transform="rotate(-180 1471 492)" fill="url(#paint0_linear_914_2297)"/>
</g>
<defs>
<linearGradient id="paint0_linear_914_2297" x1="2078.62" y1="885.868" x2="3144" y2="883.455" gradientUnits="userSpaceOnUse">
<stop offset="0.0415344" stop-color="white"/>
<stop offset="0.473958" stop-color="white" stop-opacity="0.545958"/>
<stop offset="1" stop-color="white" stop-opacity="0"/>
</linearGradient>
</defs>
</svg>
