<svg width="52" height="52" viewBox="0 0 52 52" fill="none" xmlns="http://www.w3.org/2000/svg">
<circle cx="26" cy="26" r="26" fill="#541E43"/>
<g clip-path="url(#clip0_1021_2290)">
<path d="M38.0198 39.0013H16.2698C15.7445 39.0009 15.2407 38.7934 14.8692 38.4243C14.4978 38.0552 14.2889 37.5546 14.2886 37.0326V21.3501C14.2892 20.8283 14.4982 20.328 14.8697 19.9592C15.2411 19.5903 15.7447 19.383 16.2698 19.3826H38.0198C38.5448 19.3833 39.048 19.5908 39.4192 19.9596C39.7904 20.3284 39.9992 20.8285 39.9999 21.3501V37.0326C39.9995 37.5544 39.7908 38.0548 39.4196 38.4238C39.0484 38.7929 38.545 39.0006 38.0198 39.0013ZM16.2698 20.3776C16.1413 20.3776 16.014 20.4027 15.8953 20.4516C15.7766 20.5005 15.6687 20.5721 15.5778 20.6624C15.4869 20.7527 15.4148 20.8599 15.3656 20.9779C15.3164 21.0959 15.2911 21.2224 15.2911 21.3501V37.0326C15.2911 37.2905 15.3942 37.5378 15.5778 37.7202C15.7613 37.9026 16.0103 38.0051 16.2698 38.0051H38.0198C38.2792 38.0047 38.5278 37.9021 38.7111 37.7198C38.8944 37.5374 38.9973 37.2903 38.9973 37.0326V21.3501C38.9973 21.0924 38.8944 20.8452 38.7111 20.6629C38.5278 20.4805 38.2792 20.3779 38.0198 20.3776H16.2698Z" fill="white"/>
<path d="M16.2684 39.0012C16.167 39.0009 16.0682 38.97 15.9848 38.9127C15.8762 38.8372 15.802 38.7221 15.7785 38.5924C15.755 38.4628 15.784 38.3292 15.8593 38.2207L23.3565 27.3896C23.402 27.324 23.4627 27.2702 23.5334 27.2327C23.6041 27.1952 23.6829 27.175 23.7631 27.174C23.8419 27.174 23.9198 27.1922 23.9903 27.2273C24.0609 27.2623 24.1223 27.3132 24.1696 27.3759L27.964 32.5427L30.4183 30.1563C30.4657 30.1082 30.5229 30.0707 30.5861 30.0464C30.6493 30.0221 30.717 30.0116 30.7847 30.0154C30.8531 30.0171 30.9205 30.0327 30.9826 30.0612C31.0448 30.0898 31.1004 30.1306 31.1461 30.1813L38.3961 38.1696C38.4762 38.2689 38.5152 38.3949 38.5049 38.5218C38.4947 38.6486 38.436 38.7668 38.3409 38.8521C38.2457 38.9374 38.1214 38.9833 37.9933 38.9804C37.8653 38.9775 37.7431 38.9261 37.652 38.8367L30.7508 31.2311L28.2513 33.6599C28.201 33.7111 28.1396 33.7503 28.0718 33.7745C28.0039 33.7987 27.9315 33.8072 27.8598 33.7995C27.7882 33.7937 27.7186 33.7727 27.6558 33.7378C27.593 33.703 27.5385 33.6552 27.496 33.5975L23.7781 28.533L16.6824 38.7856C16.6362 38.8522 16.5744 38.9067 16.5022 38.9442C16.4301 38.9818 16.3498 39.0014 16.2684 39.0012Z" fill="white"/>
<path d="M32.8406 28.1701C32.3708 28.1701 31.9116 28.0317 31.521 27.7724C31.1304 27.513 30.8259 27.1444 30.6461 26.7131C30.4664 26.2819 30.4193 25.8073 30.511 25.3495C30.6026 24.8916 30.8288 24.4711 31.161 24.141C31.4932 23.8109 31.9164 23.5861 32.3772 23.4951C32.838 23.404 33.3155 23.4507 33.7496 23.6294C34.1836 23.808 34.5546 24.1105 34.8156 24.4987C35.0765 24.8868 35.2159 25.3431 35.2159 25.8099C35.2152 26.4357 34.9647 27.0356 34.5194 27.4781C34.0741 27.9206 33.4703 28.1695 32.8406 28.1701ZM32.8406 24.4447C32.5688 24.4447 32.3032 24.5247 32.0773 24.6748C31.8513 24.8248 31.6752 25.038 31.5712 25.2875C31.4672 25.5369 31.44 25.8114 31.493 26.0763C31.546 26.3411 31.6769 26.5844 31.8691 26.7753C32.0612 26.9662 32.306 27.0963 32.5725 27.149C32.8391 27.2016 33.1153 27.1746 33.3664 27.0713C33.6174 26.9679 33.832 26.7929 33.983 26.5684C34.134 26.3439 34.2146 26.08 34.2146 25.8099C34.2129 25.4483 34.0676 25.102 33.8103 24.8464C33.553 24.5907 33.2045 24.4463 32.8406 24.4447Z" fill="white"/>
<path d="M12.9813 35.6186C12.4561 35.6183 11.9526 35.411 11.5811 35.0421C11.2097 34.6732 11.0007 34.173 11 33.6512V17.9687C11.0003 17.4467 11.2092 16.9461 11.5807 16.577C11.9522 16.2079 12.4559 16.0003 12.9813 16H34.7313C35.2564 16.0007 35.7598 16.2083 36.1311 16.5774C36.5023 16.9465 36.7109 17.4469 36.7113 17.9687C36.7113 18.101 36.6584 18.2278 36.5643 18.3214C36.4701 18.4149 36.3425 18.4674 36.2094 18.4674C36.0763 18.4674 35.9486 18.4149 35.8545 18.3214C35.7603 18.2278 35.7075 18.101 35.7075 17.9687C35.7071 17.7109 35.6039 17.4637 35.4204 17.2814C35.237 17.0991 34.9882 16.9965 34.7288 16.9962H12.9813C12.7218 16.9965 12.473 17.0991 12.2896 17.2814C12.1061 17.4637 12.0029 17.7109 12.0026 17.9687V33.6512C12.0029 33.909 12.1061 34.1562 12.2896 34.3385C12.473 34.5208 12.7218 34.6234 12.9813 34.6237C13.1144 34.6237 13.242 34.6762 13.3362 34.7698C13.4303 34.8633 13.4832 34.9901 13.4832 35.1224C13.4832 35.2547 13.4303 35.3815 13.3362 35.4751C13.242 35.5686 13.1144 35.6211 12.9813 35.6211V35.6186Z" fill="white"/>
</g>
<defs>
<clipPath id="clip0_1021_2290">
<rect width="29" height="23" fill="white" transform="translate(11 16)"/>
</clipPath>
</defs>
</svg>
