<svg width="20" height="19" viewBox="0 0 20 19" fill="none" xmlns="http://www.w3.org/2000/svg">
<path d="M19.9492 5.58607C19.9023 4.57652 19.7304 3.88247 19.4842 3.28106C19.2302 2.64268 18.8394 2.07114 18.3274 1.59602C17.8272 1.1135 17.2215 0.738565 16.5572 0.501076C15.9203 0.267212 15.1934 0.103956 14.1306 0.0594448C13.0597 0.011164 12.7198 0 10.0039 0C7.28799 0 6.94805 0.011164 5.8812 0.0556751C4.81831 0.100186 4.08759 0.263587 3.45456 0.497306C2.7823 0.738565 2.18057 1.10973 1.68034 1.59602C1.17233 2.07114 0.777738 2.64645 0.527549 3.27744C0.281329 3.88247 0.109448 4.57275 0.0625854 5.5823C0.0117538 6.59938 0 6.92227 0 9.50188C0 12.0815 0.0117538 12.4044 0.0586166 13.4177C0.105479 14.4272 0.277513 15.1213 0.523733 15.7227C0.777738 16.3611 1.17233 16.9326 1.68034 17.4077C2.18057 17.8903 2.78627 18.2652 3.45059 18.5027C4.08759 18.7366 4.81434 18.8998 5.87738 18.9443C6.94408 18.989 7.28418 19 10.0001 19C12.716 19 13.0559 18.989 14.1228 18.9443C15.1857 18.8998 15.9164 18.7366 16.5494 18.5027C17.8938 18.009 18.9567 16.9995 19.4764 15.7227C19.7225 15.1177 19.8945 14.4272 19.9414 13.4177C19.9882 12.4044 20 12.0815 20 9.50188C20 6.92227 19.996 6.59938 19.9492 5.58607ZM18.1478 13.3435C18.1047 14.2714 17.9406 14.7725 17.8039 15.1065C17.4677 15.9342 16.7761 16.5912 15.9046 16.9104C15.5529 17.0404 15.0216 17.1962 14.0484 17.237C12.9933 17.2816 12.6769 17.2926 10.0079 17.2926C7.33882 17.2926 7.01842 17.2816 5.96713 17.237C4.99019 17.1962 4.46264 17.0404 4.11094 16.9104C3.67727 16.7582 3.28253 16.5169 2.96212 16.2015C2.62996 15.8934 2.37595 15.5222 2.21568 15.1103C2.0789 14.7762 1.91481 14.2714 1.87191 13.3472C1.8249 12.3451 1.8133 12.0444 1.8133 9.50928C1.8133 6.97418 1.8249 6.66985 1.87191 5.67147C1.91481 4.74355 2.0789 4.24247 2.21568 3.90842C2.37595 3.49637 2.62996 3.12158 2.96609 2.8171C3.29031 2.50161 3.68109 2.26035 4.11491 2.10826C4.46661 1.97835 4.99813 1.82249 5.9711 1.7816C7.0262 1.73709 7.34279 1.72593 10.0117 1.72593C12.6847 1.72593 13.0011 1.73709 14.0524 1.7816C15.0293 1.82249 15.5569 1.97835 15.9086 2.10826C16.3423 2.26035 16.737 2.50161 17.0574 2.8171C17.3896 3.1252 17.6436 3.49637 17.8039 3.90842C17.9406 4.24247 18.1047 4.74717 18.1478 5.67147C18.1946 6.67362 18.2064 6.97418 18.2064 9.50928C18.2064 12.0444 18.1946 12.3413 18.1478 13.3435Z" fill="white"/>
<path d="M10.0036 4.62106C7.16665 4.62106 4.86488 6.80718 4.86488 9.50191C4.86488 12.1966 7.16665 14.3828 10.0036 14.3828C12.8407 14.3828 15.1423 12.1966 15.1423 9.50191C15.1423 6.80718 12.8407 4.62106 10.0036 4.62106ZM10.0036 12.668C8.16313 12.668 6.67024 11.2502 6.67024 9.50191C6.67024 7.75366 8.16313 6.33583 10.0036 6.33583C11.8442 6.33583 13.337 7.75366 13.337 9.50191C13.337 11.2502 11.8442 12.668 10.0036 12.668Z" fill="white"/>
<path d="M16.5453 4.42805C16.5453 5.0573 16.0081 5.56751 15.3455 5.56751C14.683 5.56751 14.1458 5.0573 14.1458 4.42805C14.1458 3.79866 14.683 3.2886 15.3455 3.2886C16.0081 3.2886 16.5453 3.79866 16.5453 4.42805Z" fill="white"/>
</svg>
