<svg width="266" height="137" viewBox="0 0 266 137" fill="none" xmlns="http://www.w3.org/2000/svg">
<g clip-path="url(#clip0_114_45)">
<path d="M76.1828 135.45V107.018H80.7947L81.0004 107.308L91.8086 122.778L102.609 107.308L102.807 107.018H107.423V136.122H101.764V117.641L92.3646 131.317L91.8124 132.114L91.264 131.317L81.8763 117.641V136.111H76.1828V135.45ZM116.498 107.091H121.518V125.542C121.49 126.599 121.637 127.654 121.952 128.664C122.161 129.346 122.571 129.949 123.129 130.393C123.894 130.886 124.759 131.204 125.661 131.324C128.672 131.772 131.733 131.772 134.744 131.324C135.647 131.204 136.511 130.886 137.277 130.393C137.834 129.948 138.246 129.346 138.457 128.664C138.771 127.654 138.917 126.599 138.888 125.542V107.087H144.539V126.675C144.576 128.273 144.282 129.861 143.675 131.339C143.106 132.655 142.183 133.785 141.009 134.603C139.655 135.499 138.136 136.116 136.542 136.416C134.429 136.834 132.278 137.028 130.125 136.996C127.983 137.027 125.844 136.834 123.742 136.42C122.155 136.128 120.643 135.52 119.294 134.633C118.134 133.814 117.228 132.683 116.681 131.37C116.081 129.878 115.792 128.279 115.832 126.671V107.091H116.498ZM158.25 118.591H172.302C172.908 118.601 173.511 118.528 174.096 118.373C174.533 118.261 174.94 118.057 175.292 117.774C175.599 117.522 175.839 117.198 175.993 116.831C176.311 115.969 176.311 115.022 175.993 114.16C175.842 113.799 175.604 113.481 175.3 113.236C174.941 112.959 174.531 112.758 174.092 112.644C173.508 112.494 172.906 112.423 172.302 112.434H158.25V118.591ZM158.25 123.996V136.122H152.564V107.087H172.31C173.655 107.068 174.995 107.251 176.286 107.629C177.422 107.967 178.476 108.536 179.382 109.301C180.249 110.025 180.93 110.948 181.366 111.992C181.821 113.101 182.044 114.292 182.021 115.492C182.029 116.513 181.855 117.528 181.507 118.488C181.154 119.43 180.63 120.299 179.961 121.049C179.294 121.826 178.489 122.472 177.589 122.958C176.956 123.292 176.286 123.548 175.593 123.721L182.76 135.095L183.408 136.126H177.124L176.926 135.82L169.309 123.988L158.25 123.996ZM188.557 135.446V106.953H194.303V136.122H188.564L188.557 135.446ZM233.05 129.019C232.256 130.285 231.298 131.44 230.201 132.454C229.112 133.449 227.893 134.292 226.579 134.962C225.23 135.649 223.8 136.162 222.322 136.488C220.752 136.835 219.149 137.007 217.542 137C215.206 137.026 212.882 136.665 210.664 135.931C208.613 135.228 206.719 134.127 205.093 132.691C203.514 131.336 202.248 129.653 201.383 127.759C200.567 125.832 200.146 123.759 200.146 121.665C200.146 119.572 200.567 117.499 201.383 115.572C202.249 113.671 203.513 111.978 205.089 110.61C206.719 109.166 208.618 108.058 210.676 107.35C212.892 106.608 215.217 106.242 217.554 106.27C219.051 106.264 220.545 106.411 222.013 106.709C223.412 106.996 224.772 107.443 226.069 108.041C227.312 108.608 228.481 109.326 229.55 110.179C230.585 111.019 231.508 111.991 232.296 113.068L232.7 113.621L232.14 114.003L228.712 116.412L228.179 116.793L227.798 116.259C227.267 115.523 226.641 114.86 225.936 114.289C225.202 113.703 224.399 113.211 223.544 112.824C222.636 112.414 221.684 112.109 220.707 111.915C219.674 111.708 218.622 111.605 217.569 111.61C215.99 111.59 214.418 111.834 212.919 112.331C211.551 112.803 210.288 113.535 209.198 114.488C208.158 115.353 207.326 116.442 206.762 117.674C206.198 118.905 205.918 120.248 205.942 121.603C205.925 122.95 206.201 124.286 206.753 125.515C207.332 126.746 208.168 127.838 209.206 128.717C210.3 129.668 211.567 130.398 212.938 130.866C214.43 131.364 215.996 131.608 217.569 131.588C218.689 131.595 219.807 131.479 220.901 131.24C221.902 131.021 222.87 130.672 223.78 130.202C224.693 129.723 225.54 129.127 226.298 128.427C227.124 127.659 227.862 126.801 228.499 125.87L228.88 125.316L229.428 125.698L232.894 128.107L233.423 128.488L233.05 129.019ZM246.832 135.446V121.545L234.417 108.148L233.374 107.022H240.777L240.979 107.232L249.651 116.557L258.185 107.24L258.387 107.018H266.004L264.941 108.163L252.438 121.492V136.133H246.84L246.832 135.446ZM37.1774 127.232V136.198H31.3391V113.095H46.7593C47.835 113.08 48.9069 113.226 49.9393 113.53C50.8828 113.812 51.7589 114.285 52.5137 114.919C53.2503 115.538 53.8309 116.323 54.2085 117.209C54.5838 118.131 54.7703 119.119 54.7569 120.114C54.7625 120.966 54.6168 121.813 54.3265 122.614C54.0299 123.403 53.5895 124.131 53.0279 124.759C52.4674 125.404 51.7936 125.941 51.0399 126.343C50.838 126.45 50.6324 126.553 50.4191 126.641L55.172 134.183L56.4364 136.191H49.8821L49.5013 135.591L44.0896 127.221L37.1774 127.232ZM37.1774 121.603H46.7593C47.1301 121.61 47.5003 121.568 47.8599 121.477C48.0727 121.422 48.2722 121.325 48.4464 121.19C48.5728 121.089 48.6722 120.958 48.7358 120.809C48.883 120.372 48.883 119.898 48.7358 119.461C48.6785 119.313 48.5841 119.181 48.4616 119.08C48.284 118.943 48.0805 118.845 47.8637 118.789C47.5003 118.698 47.1263 118.655 46.7516 118.663H37.1774V121.603ZM12.659 107.037C14.7335 107.011 16.7962 107.352 18.7525 108.045C20.5806 108.705 22.2485 109.746 23.6462 111.098C25.0287 112.424 26.1095 114.033 26.8148 115.816C27.5378 117.685 27.8959 119.675 27.8697 121.679C27.9068 123.687 27.5644 125.684 26.8605 127.565C26.1664 129.333 25.0939 130.928 23.7186 132.236C22.3195 133.571 20.6524 134.591 18.8286 135.229C16.846 135.901 14.7635 136.231 12.6705 136.202H0V107.037H12.659ZM12.659 112.713H5.91441V130.526H12.6705C13.998 130.546 15.3193 130.34 16.5779 129.916C17.6444 129.543 18.6168 128.941 19.4265 128.152C20.2202 127.374 20.8338 126.431 21.2241 125.389C21.6513 124.188 21.859 122.919 21.8372 121.644C21.8593 120.384 21.6489 119.13 21.2165 117.946C20.8028 116.886 20.1687 115.927 19.3564 115.132C18.5442 114.337 17.5723 113.724 16.5055 113.335C15.2635 112.901 13.9551 112.689 12.64 112.709L12.659 112.713Z" fill="white"/>
<path d="M127.375 23.5312C125.174 22.2831 122.782 21.0502 120.714 20.3822L119.023 19.7181C117.637 19.1965 116.241 18.699 114.834 18.2257C113.595 19.0274 112.431 19.9409 111.357 20.9548L112.381 13.9508C114.187 14.3935 115.973 14.8745 117.751 15.4165C119.796 16.0386 121.826 16.7218 123.814 17.5081C125.181 18.0807 126.575 18.6952 127.943 19.367C129.047 19.9051 130.136 20.4815 131.183 21.0922C129.892 21.8556 128.636 22.6686 127.398 23.5159M170.501 65.6659L170.238 63.8949V63.872C170.071 62.5552 169.679 60.891 169.233 58.9978C169.111 58.4787 168.982 57.9405 168.765 56.9863C167.571 51.7617 165.701 46.7161 163.2 41.9783C161.823 39.3699 160.285 36.8497 158.596 34.4323L157.507 26.5733C159.818 29.3241 161.922 32.2432 163.802 35.3063C164.876 37.0621 165.88 38.8624 166.815 40.7072L161.395 4.11462C157.04 4.34796 152.715 4.98686 148.477 6.02307C145.227 6.80961 142.037 7.8301 138.933 9.07659C135.222 10.4888 131.666 12.2794 128.32 14.4203C127.413 15.0004 126.53 15.5959 125.703 16.1722C124.812 15.7905 123.902 15.4394 122.984 15.1035C122.418 14.8974 121.848 14.6951 121.274 14.4966C122.497 13.5538 123.769 12.6301 125.06 11.7751C127.581 10.0995 130.273 8.7636 132.966 7.38952H132.992C137.674 5.08188 142.609 3.33199 147.697 2.17563C152.953 0.985759 158.307 0.276723 163.692 0.0572541L164.758 0.00763252L164.918 1.07255L174.485 65.6736L170.501 65.6659ZM149.936 14.9775C150.507 14.821 151.326 14.5729 152.388 14.2752L153.683 13.9164L153.878 15.2561L155.123 23.8633L155.157 23.8976L156.761 35.4857H156.806L161.193 65.6736H157.183C156.928 64.3262 156.319 61.1429 156.3 61.0704V61.0399C153.261 47.8424 145.61 36.1711 134.729 28.1382C135.898 27.3748 137.105 26.6763 138.339 26.0274C142.118 28.9924 145.531 32.3968 148.508 36.1689C150.653 38.8901 152.564 41.7886 154.22 44.8333L151.844 28.3939L150.222 16.7257L149.936 14.9775ZM142.254 17.5158C139.95 15.8547 137.56 14.3157 135.095 12.9049C136.492 12.2294 137.905 11.5767 139.345 10.9965L139.398 10.9736H139.451L139.501 10.9507C140.084 11.3095 140.643 11.6759 141.23 12.05C143.713 13.6454 146.069 15.432 148.275 17.3936L149.14 23.3632L148.729 22.9816C147.708 22.0273 146.703 21.1113 145.766 20.2677C144.65 19.282 143.478 18.3631 142.254 17.5158ZM91.4963 65.6659L101.124 1.06492L101.28 0L102.35 0.0496187C107.735 0.264217 113.089 0.973314 118.345 2.168C122.595 3.14841 126.74 4.53389 130.726 6.30552C129.127 7.0689 127.68 7.8819 126.179 8.67581C123.392 7.5985 120.537 6.70596 117.633 6.00398C113.385 4.97369 109.05 4.34244 104.685 4.11844L99.2197 40.5393C100.073 38.8777 100.992 37.2491 101.977 35.6537C103.939 32.5008 106.112 29.4849 108.482 26.6267L108.52 26.661C109.811 25.2259 111.262 23.7182 112.667 22.4319C113.439 21.7161 114.25 21.0445 115.097 20.4204C116.159 20.8021 117.23 21.1838 118.3 21.5846L118.681 21.7258C118.307 22.0642 117.934 22.4077 117.561 22.7564C116.906 23.3709 116.243 24.0045 115.596 24.6381L115.577 24.6114C112.328 27.688 109.463 31.1486 107.046 34.917L107.095 34.9475C105.386 37.5219 103.836 40.1987 102.453 42.963C99.6158 48.6502 97.5479 54.5664 96.512 59.975L95.7503 63.9102L95.4951 65.6469L91.4963 65.6659ZM117.69 42.6882C113.12 49.8296 109.94 57.9253 108.897 65.2423L108.832 65.6659H104.86L109.301 35.104C110.773 32.9241 112.392 30.8468 114.145 28.8863L111.94 44.3028C113.543 41.2956 115.403 38.4336 117.5 35.7491C121.233 30.9439 125.772 26.8264 130.913 23.5808C133.347 22.0541 135.982 20.6342 138.53 19.325C139.09 19.0349 139.642 18.7601 140.194 18.4967C141.097 19.0998 141.9 19.6761 142.635 20.2448C143.039 20.554 143.397 20.8594 143.778 21.1609C142.719 21.6393 141.673 22.1304 140.64 22.6342C131.031 27.3519 123.631 33.417 117.69 42.6882Z" fill="white"/>
<path d="M79.5647 87.3001V93.4376H76.6208V79.3533H79.5685V84.487H87.947V79.3533H90.8794V93.4376H87.947V87.3001H79.5647ZM101.387 91.0444C102.154 91.0552 102.918 90.9418 103.649 90.7086C104.295 90.4976 104.894 90.1617 105.412 89.72C106.123 89.0973 106.617 88.2638 106.822 87.3406C107.027 86.4173 106.934 85.4525 106.555 84.5862C106.285 84.0156 105.895 83.5103 105.412 83.1053C104.893 82.6631 104.293 82.3261 103.645 82.1129C102.181 81.6677 100.619 81.6677 99.155 82.1129C98.5119 82.3255 97.9167 82.6627 97.4032 83.1053C96.9186 83.5074 96.5285 84.0118 96.2607 84.5824C96.0034 85.1585 95.8735 85.7835 95.8798 86.4145C95.867 87.0439 95.9956 87.668 96.256 88.2409C96.5163 88.8137 96.9019 89.3205 97.3841 89.7238C97.8986 90.165 98.4935 90.502 99.136 90.7162C99.8611 90.9466 100.618 91.0587 101.379 91.0483L101.387 91.0444ZM101.387 93.8537C98.9367 93.8537 96.9132 93.1526 95.3162 91.7506C94.5488 91.0883 93.9309 90.2699 93.5034 89.3497C93.1039 88.4203 92.8979 87.4189 92.8979 86.4069C92.8979 85.3949 93.1039 84.3935 93.5034 83.4641C93.924 82.5452 94.5402 81.7297 95.3086 81.0747C96.1054 80.3806 97.0306 79.8502 98.0316 79.5136C99.1143 79.1592 100.248 78.9852 101.387 78.9983C102.533 78.9846 103.674 79.1586 104.765 79.5136C105.769 79.8478 106.698 80.377 107.499 81.0709C108.268 81.7245 108.886 82.5387 109.308 83.4564C109.706 84.3896 109.912 85.3939 109.912 86.4088C109.912 87.4237 109.706 88.4281 109.308 89.3612C108.884 90.2821 108.265 91.0999 107.495 91.7582C106.697 92.4597 105.767 92.9955 104.761 93.3346C103.672 93.6928 102.532 93.8682 101.387 93.8537ZM111.315 91.0941L112.317 89.3612L112.549 88.9604L112.93 89.22C113.366 89.5075 113.823 89.7626 114.297 89.9833C114.776 90.2134 115.271 90.4085 115.779 90.5673C116.277 90.7312 116.786 90.8588 117.302 90.949C117.774 91.0271 118.252 91.0667 118.73 91.0673C119.23 91.0747 119.729 91.0182 120.215 90.8994C120.611 90.8071 120.988 90.6456 121.327 90.4223C121.601 90.2518 121.831 90.0207 122.001 89.7467C122.142 89.5018 122.214 89.2237 122.211 88.9413C122.224 88.6747 122.159 88.41 122.023 88.18C121.888 87.9501 121.688 87.7649 121.449 87.6474C121.091 87.4602 120.705 87.3314 120.307 87.2657C119.722 87.1584 119.13 87.0996 118.536 87.0901C117.502 87.0863 116.469 87.0059 115.447 86.8497C114.729 86.755 114.033 86.534 113.391 86.197C112.89 85.9105 112.483 85.485 112.218 84.9718C111.952 84.4229 111.821 83.8182 111.837 83.2083C111.83 82.601 111.974 82.0015 112.256 81.464C112.558 80.9225 112.984 80.4596 113.497 80.1128C114.063 79.7238 114.694 79.4394 115.36 79.2731C116.127 79.0821 116.915 78.9897 117.706 78.9983C118.286 78.9982 118.865 79.0403 119.438 79.1243C120.01 79.2074 120.574 79.335 121.126 79.506C121.681 79.6747 122.224 79.8813 122.752 80.1243C123.29 80.3754 123.812 80.661 124.313 80.9793L124.671 81.2121L124.45 81.5938L123.407 83.2885L123.171 83.6702L122.79 83.4106C122.396 83.1468 121.985 82.9096 121.56 82.7007C121.134 82.4938 120.695 82.3165 120.246 82.1702C119.811 82.031 119.367 81.9226 118.917 81.8457C118.504 81.7767 118.086 81.7409 117.668 81.7388C116.91 81.7027 116.156 81.8617 115.478 82.2007C115.266 82.3151 115.083 82.4755 114.941 82.6702C114.839 82.8265 114.786 83.01 114.788 83.1969C114.789 83.3882 114.852 83.5741 114.967 83.7263C115.083 83.8786 115.244 83.9889 115.428 84.0404C115.797 84.1721 116.181 84.2554 116.571 84.2885C117.196 84.3539 117.824 84.3833 118.452 84.3763C119.411 84.3657 120.369 84.4591 121.308 84.6549C122.067 84.8096 122.791 85.1019 123.445 85.5176C124.017 85.8895 124.483 86.4037 124.797 87.01C125.105 87.647 125.259 88.3479 125.246 89.0558C125.252 89.7198 125.095 90.375 124.789 90.9643C124.457 91.5648 123.998 92.0857 123.445 92.491C122.841 92.9435 122.159 93.2811 121.434 93.4873C120.63 93.7134 119.798 93.8239 118.962 93.8155C118.302 93.8139 117.643 93.7667 116.99 93.6743C116.329 93.5782 115.677 93.4366 115.036 93.2506C114.399 93.0667 113.776 92.8397 113.17 92.5712C112.579 92.3059 112.009 91.9972 111.464 91.6475L111.11 91.4223L111.315 91.0941ZM130.197 84.8611H137.277C137.549 84.8653 137.821 84.8319 138.084 84.7618C138.276 84.7117 138.455 84.622 138.61 84.4985C138.741 84.3923 138.843 84.2544 138.907 84.0977C138.983 83.91 139.019 83.7085 139.014 83.5061C139.018 83.3069 138.984 83.1087 138.914 82.9221C138.848 82.7743 138.749 82.6437 138.625 82.5404C138.48 82.4192 138.311 82.3295 138.13 82.277C137.882 82.2102 137.625 82.1781 137.368 82.1816H130.197V84.8611ZM130.197 87.6665V93.4376H127.249V79.3533H137.273C137.928 79.345 138.581 79.4324 139.212 79.6128C139.769 79.7747 140.288 80.0502 140.735 80.422C141.159 80.7802 141.492 81.2341 141.706 81.7465C141.923 82.2938 142.031 82.8788 142.022 83.4679C142.028 84.0407 141.921 84.6089 141.706 85.1397C141.492 85.6558 141.166 86.1184 140.754 86.4947C140.337 86.8875 139.843 87.1879 139.303 87.3764C138.722 87.5735 138.111 87.6703 137.498 87.6627L130.197 87.6665ZM144.067 93.0101V79.3189H147.038V93.4415H144.067V93.0101ZM154.373 93.0101V82.0709H148.824V79.3533H162.877V82.0747H157.309V93.4376H154.377L154.373 93.0101ZM165.596 87.4642H169.317L167.47 83.8114L165.596 87.4642ZM159.72 92.8079L166.419 79.6014L166.54 79.3609H168.368L168.49 79.6014L175.25 92.8079L175.574 93.4453H172.386L172.264 93.2048L170.676 90.0864H164.259L162.679 93.2124L162.557 93.4567H159.392L159.72 92.8079ZM176.648 93.0063V79.3533H179.596V90.6589H189.375V93.4376H176.652L176.648 93.0063Z" fill="white"/>
</g>
<defs>
<clipPath id="clip0_114_45">
<rect width="266" height="137" fill="white"/>
</clipPath>
</defs>
</svg>
