<svg width="52" height="52" viewBox="0 0 52 52" fill="none" xmlns="http://www.w3.org/2000/svg">
<circle cx="26" cy="26" r="26" fill="#541E43"/>
<g clip-path="url(#clip0_1021_2287)">
<path d="M32.0995 31.6756C31.0958 31.2069 30.0574 30.7233 29.3148 30.0893V28.8149L29.3816 28.7413C29.414 28.7056 29.4405 28.6646 29.4602 28.6199C30.0233 27.9298 30.493 27.0117 30.8606 25.8813H30.8674C31.8545 25.8813 32.6391 24.9878 32.8675 23.6042C33.0333 22.599 32.8415 21.3885 32.0729 20.8778V18.3386C32.0729 17.5065 31.9158 16.6825 31.6106 15.9137C31.3053 15.1449 30.8579 14.4464 30.2939 13.858C29.7299 13.2695 29.0603 12.8028 28.3234 12.4843C27.5865 12.1659 26.7967 12.002 25.9991 12.002C25.2014 12.002 24.4116 12.1659 23.6747 12.4843C22.9378 12.8028 22.2682 13.2695 21.7042 13.858C21.1402 14.4464 20.6928 15.1449 20.3876 15.9137C20.0824 16.6825 19.9252 17.5065 19.9252 18.3386V20.8759C19.1115 21.4137 18.95 22.71 19.161 23.754C19.4221 25.0452 20.1951 25.8845 21.1307 25.8845H21.1375C21.5051 27.015 21.9748 27.933 22.538 28.6232C22.5579 28.6677 22.5844 28.7086 22.6165 28.7445L22.6834 28.8181V30.0926C21.9408 30.7266 20.9036 31.2101 19.8986 31.6788C17.9803 32.5736 16 33.4994 16 35.5525V37.5487C16 38.1993 16.2477 38.8234 16.6888 39.2834C17.1298 39.7435 17.7279 40.002 18.3516 40.002H33.6484C34.2721 40.002 34.8702 39.7435 35.3112 39.2834C35.7522 38.8234 36 38.1993 36 37.5487V35.5512C36 33.4962 34.0166 32.5691 32.0995 31.6756ZM21.8758 25.288C21.8481 25.1946 21.7925 25.1129 21.7171 25.0548C21.6417 24.9967 21.5506 24.9653 21.4569 24.9652H21.1314C20.5199 24.9652 20.1505 24.2104 20.0175 23.5642C19.8361 22.6655 20.0348 21.8049 20.4698 21.6054C20.4779 21.6015 20.4859 21.5977 20.4933 21.5931C20.5905 21.6332 20.7124 21.6939 20.7972 21.7365C20.882 21.7791 20.9692 21.823 21.0565 21.8656C21.1097 21.8926 21.1677 21.908 21.2268 21.911C21.286 21.914 21.3451 21.9045 21.4006 21.883C21.4561 21.8615 21.5069 21.8285 21.5499 21.786C21.5929 21.7435 21.6272 21.6924 21.6507 21.6357C21.6742 21.579 21.6865 21.518 21.6868 21.4562C21.6871 21.3944 21.6754 21.3332 21.6525 21.2763C21.6295 21.2193 21.5957 21.1678 21.5532 21.1249C21.5106 21.0819 21.4602 21.0484 21.4049 21.0263C21.3337 20.9947 21.2582 20.9566 21.1778 20.9159C21.054 20.8513 20.9302 20.7907 20.8009 20.7403V18.3386C20.8009 16.9003 21.3486 15.521 22.3234 14.5039C23.2982 13.4869 24.6204 12.9155 25.9991 12.9155C27.3777 12.9155 28.6999 13.4869 29.6747 14.5039C30.6496 15.521 31.1973 16.9003 31.1973 18.3386V20.7422C31.0685 20.7965 30.9423 20.8655 30.8173 20.9359C30.7307 20.983 30.649 21.0282 30.5735 21.065C30.4676 21.1152 30.3852 21.2072 30.3443 21.3208C30.3035 21.4343 30.3076 21.5602 30.3556 21.6706C30.4037 21.7811 30.4919 21.867 30.6008 21.9097C30.7096 21.9523 30.8302 21.948 30.9361 21.8979C31.0339 21.852 31.1304 21.7991 31.2239 21.7481C31.3031 21.7048 31.4157 21.6435 31.5067 21.6022C31.9361 21.7804 32.1496 22.5706 32.0017 23.4525C31.878 24.2079 31.4776 24.9697 30.8662 24.9697H30.5407C30.447 24.9698 30.3559 25.0012 30.2806 25.0593C30.2053 25.1174 30.1499 25.1991 30.1223 25.2925C29.7281 26.6127 29.2046 27.6205 28.5647 28.2874C28.5435 28.3095 28.5246 28.334 28.5084 28.3604C27.7924 29.0454 26.9118 29.4192 25.9978 29.4192C25.0838 29.4192 24.2032 29.0454 23.4879 28.3598C23.4713 28.3337 23.4522 28.3094 23.4309 28.2874C22.7929 27.6154 22.2688 26.6082 21.8758 25.288ZM23.4179 30.642C23.4641 30.599 23.501 30.5464 23.5262 30.4876C23.5515 30.4287 23.5646 30.3649 23.5646 30.3005V29.567C24.2885 30.0645 25.1363 30.3296 26.0031 30.3296C26.8699 30.3296 27.7177 30.0645 28.4416 29.567V30.3005C28.4416 30.3649 28.4547 30.4287 28.4799 30.4876C28.5052 30.5464 28.5421 30.599 28.5883 30.642C28.825 30.8598 29.0774 31.0584 29.3432 31.2359C27.0994 32.9391 24.9068 32.9391 22.6599 31.2359C22.9267 31.0584 23.1801 30.8598 23.4179 30.642ZM21.8393 31.7337C23.2057 32.8538 24.6055 33.4213 26.0028 33.4213C27.4001 33.4213 28.8005 32.8532 30.1663 31.7337C30.3829 31.8518 30.6038 31.9648 30.8278 32.0752C27.5851 34.8675 24.4211 34.8675 21.1778 32.0752C21.3987 31.9648 21.6233 31.8518 21.8362 31.7337H21.8393ZM35.1256 37.5474C35.1253 37.9552 34.9699 38.3462 34.6935 38.6347C34.4172 38.9231 34.0424 39.0854 33.6515 39.0859H18.3516C17.9606 39.0854 17.5858 38.9231 17.3094 38.6347C17.0329 38.3463 16.8774 37.9553 16.8769 37.5474V35.5512C16.8769 34.0889 18.4438 33.3561 20.2582 32.5104L20.2935 32.4942C22.166 34.2044 24.0856 35.0708 25.9997 35.0708C27.9137 35.0708 29.8364 34.2038 31.7059 32.4942L31.7412 32.5104C33.5556 33.3574 35.1225 34.0895 35.1225 35.5512L35.1256 37.5474Z" fill="white"/>
</g>
<defs>
<clipPath id="clip0_1021_2287">
<rect width="20" height="28" fill="white" transform="translate(16 12)"/>
</clipPath>
</defs>
</svg>
