<svg width="52" height="52" viewBox="0 0 52 52" fill="none" xmlns="http://www.w3.org/2000/svg">
<circle cx="26" cy="26" r="26" fill="#541E43"/>
<g clip-path="url(#clip0_1021_2289)">
<path d="M32.7095 31.3775C31.6053 30.8921 30.4631 30.3913 29.6462 29.7353V28.4147L29.7198 28.3391C29.7555 28.302 29.7847 28.2593 29.8062 28.2128C30.4257 27.4986 30.9423 26.5478 31.3467 25.3769H31.3542C32.4399 25.3769 33.303 24.4515 33.5542 23.0186C33.7367 21.9775 33.5256 20.7237 32.6802 20.1948V17.5649C32.6802 16.7031 32.5074 15.8497 32.1716 15.0534C31.8358 14.2571 31.3437 13.5337 30.7233 12.9242C30.1029 12.3148 29.3664 11.8314 28.5558 11.5016C27.7452 11.1717 26.8764 11.002 25.999 11.002C25.1216 11.002 24.2528 11.1717 23.4422 11.5016C22.6316 11.8314 21.8951 12.3148 21.2747 12.9242C20.6542 13.5337 20.1621 14.2571 19.8263 15.0534C19.4906 15.8497 19.3178 16.7031 19.3178 17.5649V20.1928C18.4226 20.7498 18.245 22.0925 18.4771 23.1737C18.7643 24.511 19.6146 25.3769 20.6438 25.3769H20.6513C21.0556 26.5471 21.5723 27.4979 22.1917 28.2134C22.2137 28.2595 22.2428 28.302 22.2782 28.3391L22.3517 28.4147V29.7353C21.5349 30.3913 20.394 30.8921 19.2885 31.3775C17.1783 32.305 15 33.2638 15 35.3895V37.457C15 38.1309 15.2725 38.7772 15.7576 39.2538C16.2427 39.7303 16.9007 39.998 17.5867 39.998H34.4133C35.0993 39.998 35.7573 39.7303 36.2424 39.2538C36.7275 38.7772 37 38.1309 37 37.457V35.3895C37 33.2638 34.8183 32.305 32.7095 31.3775ZM20.2837 17.5649C20.2837 16.0753 20.8861 14.6466 21.9585 13.5933C23.0308 12.5399 24.4852 11.9481 26.0017 11.9481C27.5182 11.9481 28.9726 12.5399 30.0449 13.5933C31.1173 14.6466 31.7197 16.0753 31.7197 17.5649V20.0544C31.5781 20.1105 31.4392 20.1821 31.3017 20.255C31.2112 20.3018 31.0805 20.3686 30.9784 20.4108C30.978 20.4054 30.978 20.4001 30.9784 20.3947L30.9689 20.2523C30.9294 19.6231 30.8919 19.0286 30.8504 18.6769C30.6462 16.9785 28.3052 16.1922 26.0718 16.1661H25.9506C23.7104 16.1661 21.379 16.9324 21.1305 18.6669C21.0665 19.1116 21.0413 19.6886 21.0155 20.2998V20.3753C20.912 20.3345 20.7888 20.2764 20.701 20.2342C20.5648 20.1674 20.4287 20.1005 20.2857 20.0524L20.2837 17.5649ZM21.4634 24.7658C21.4329 24.6691 21.3717 24.5845 21.2888 24.5243C21.2059 24.4642 21.1056 24.4316 21.0025 24.4315H20.6445C19.9719 24.4315 19.5656 23.6498 19.4192 22.9804C19.2197 22.0497 19.4383 21.1583 19.9168 20.9511C19.9256 20.9511 19.9345 20.943 19.9427 20.939C20.0495 20.9798 20.1836 21.0433 20.2776 21.0875C20.6983 21.2881 21.1761 21.5127 21.5893 21.26C21.8398 21.1062 21.9691 20.8287 21.9739 20.4362L21.978 20.3392C22.0018 19.7775 22.027 19.1971 22.0842 18.8013C22.2469 17.6646 24.2033 17.0955 26.0528 17.1169C28.1269 17.141 29.7742 17.8605 29.8845 18.7886C29.9233 19.1149 29.9614 19.7247 29.9989 20.3131L30.0084 20.4609C30.039 20.8762 30.1908 21.1603 30.4577 21.3061C30.8831 21.5388 31.3426 21.3061 31.7435 21.0962C31.83 21.0514 31.9539 20.9878 32.0539 20.9457C32.5263 21.1303 32.7612 21.9487 32.5985 22.8621C32.4624 23.6438 32.0219 24.4335 31.3494 24.4335H30.9913C30.8883 24.4336 30.7881 24.4661 30.7053 24.5263C30.6224 24.5864 30.5614 24.6711 30.5312 24.7678C30.0976 26.1352 29.5217 27.179 28.8178 27.8691C28.7947 27.8922 28.774 27.9175 28.7559 27.9446C27.9683 28.6547 26.9996 29.0412 25.9942 29.0412C24.9888 29.0412 24.0201 28.6547 23.2332 27.9446C23.2149 27.9175 23.1939 27.8922 23.1706 27.8691C22.4722 27.173 21.8956 26.1299 21.4634 24.7658ZM23.1597 30.3077C23.2105 30.2632 23.2511 30.2087 23.2789 30.1478C23.3067 30.0868 23.321 30.0208 23.321 29.954V29.1944C24.1173 29.7095 25.0499 29.9841 26.0034 29.9841C26.9569 29.9841 27.8895 29.7095 28.6858 29.1944V29.954C28.6858 30.0208 28.7001 30.0868 28.7279 30.1478C28.7557 30.2087 28.7963 30.2632 28.8471 30.3077C29.1075 30.5333 29.3851 30.739 29.6776 30.9229C27.2093 32.6868 24.7975 32.6868 22.3258 30.9229C22.6194 30.739 22.8981 30.5333 23.1597 30.3077ZM36.0381 37.4624C36.0378 37.8848 35.8669 38.2898 35.5629 38.5885C35.2589 38.8872 34.8467 39.0553 34.4167 39.0558H17.5867C17.1567 39.0553 16.7444 38.8872 16.4403 38.5885C16.1362 38.2898 15.9651 37.8848 15.9646 37.4624V35.3949C15.9646 33.8804 17.6881 33.1214 19.684 32.2455C20.2667 31.9894 20.8589 31.7293 21.4198 31.4431C22.9221 32.6032 24.4626 33.1916 25.9997 33.1916C27.5367 33.1916 29.0772 32.6032 30.5795 31.4431C31.1404 31.7319 31.7326 31.992 32.3153 32.2455C34.3112 33.1228 36.0347 33.8804 36.0347 35.3949L36.0381 37.4624Z" fill="white"/>
</g>
<defs>
<clipPath id="clip0_1021_2289">
<rect width="22" height="29" fill="white" transform="translate(15 11)"/>
</clipPath>
</defs>
</svg>
