<svg width="1238" height="6" viewBox="0 0 1238 6" fill="none" xmlns="http://www.w3.org/2000/svg">
<path d="M0.333333 3C0.333333 4.47276 1.52724 5.66667 3 5.66667C4.47276 5.66667 5.66667 4.47276 5.66667 3C5.66667 1.52724 4.47276 0.333333 3 0.333333C1.52724 0.333333 0.333333 1.52724 0.333333 3ZM1232.33 3C1232.33 4.47276 1233.53 5.66667 1235 5.66667C1236.47 5.66667 1237.67 4.47276 1237.67 3C1237.67 1.52724 1236.47 0.333333 1235 0.333333C1233.53 0.333333 1232.33 1.52724 1232.33 3ZM3 3.5H7.96774V2.5H3V3.5ZM17.9032 3.5H27.8387V2.5H17.9032V3.5ZM37.7742 3.5H47.7097V2.5H37.7742V3.5ZM57.6452 3.5H67.5807V2.5H57.6452V3.5ZM77.5161 3.5H87.4516V2.5H77.5161V3.5ZM97.3871 3.5H107.323V2.5H97.3871V3.5ZM117.258 3.5H127.194V2.5H117.258V3.5ZM137.129 3.5H147.065V2.5H137.129V3.5ZM157 3.5H166.935V2.5H157V3.5ZM176.871 3.5H186.806V2.5H176.871V3.5ZM196.742 3.5H206.677V2.5H196.742V3.5ZM216.613 3.5H226.548V2.5H216.613V3.5ZM236.484 3.5H246.419V2.5H236.484V3.5ZM256.355 3.5H266.29V2.5H256.355V3.5ZM276.226 3.5H286.161V2.5H276.226V3.5ZM296.097 3.5H306.032V2.5H296.097V3.5ZM315.968 3.5H325.903V2.5H315.968V3.5ZM335.839 3.5H345.774V2.5H335.839V3.5ZM355.71 3.5H365.645V2.5H355.71V3.5ZM375.581 3.5H385.516V2.5H375.581V3.5ZM395.452 3.5H405.387V2.5H395.452V3.5ZM415.323 3.5H425.258V2.5H415.323V3.5ZM435.194 3.5H445.129V2.5H435.194V3.5ZM455.065 3.5H465V2.5H455.065V3.5ZM474.936 3.5H484.871V2.5H474.936V3.5ZM494.807 3.5H504.742V2.5H494.807V3.5ZM514.677 3.5H524.613V2.5H514.677V3.5ZM534.548 3.5H544.484V2.5H534.548V3.5ZM554.419 3.5H564.355V2.5H554.419V3.5ZM574.29 3.5H584.226V2.5H574.29V3.5ZM594.161 3.5H604.097V2.5H594.161V3.5ZM614.032 3.5H623.968V2.5H614.032V3.5ZM633.903 3.5H643.839V2.5H633.903V3.5ZM653.774 3.5H663.71V2.5H653.774V3.5ZM673.645 3.5H683.581V2.5H673.645V3.5ZM693.516 3.5H703.452V2.5H693.516V3.5ZM713.387 3.5H723.323V2.5H713.387V3.5ZM733.258 3.5H743.194V2.5H733.258V3.5ZM753.129 3.5H763.065V2.5H753.129V3.5ZM773 3.5H782.936V2.5H773V3.5ZM792.871 3.5H802.807V2.5H792.871V3.5ZM812.742 3.5H822.678V2.5H812.742V3.5ZM832.613 3.5H842.549V2.5H832.613V3.5ZM852.484 3.5H862.419V2.5H852.484V3.5ZM872.355 3.5H882.29V2.5H872.355V3.5ZM892.226 3.5H902.161V2.5H892.226V3.5ZM912.097 3.5H922.032V2.5H912.097V3.5ZM931.968 3.5H941.903V2.5H931.968V3.5ZM951.839 3.5H961.774V2.5H951.839V3.5ZM971.71 3.5H981.645V2.5H971.71V3.5ZM991.581 3.5H1001.52V2.5H991.581V3.5ZM1011.45 3.5H1021.39V2.5H1011.45V3.5ZM1031.32 3.5H1041.26V2.5H1031.32V3.5ZM1051.19 3.5H1061.13V2.5H1051.19V3.5ZM1071.06 3.5H1081V2.5H1071.06V3.5ZM1090.94 3.5H1100.87V2.5H1090.94V3.5ZM1110.81 3.5H1120.74V2.5H1110.81V3.5ZM1130.68 3.5H1140.61V2.5H1130.68V3.5ZM1150.55 3.5H1160.48V2.5H1150.55V3.5ZM1170.42 3.5H1180.35V2.5H1170.42V3.5ZM1190.29 3.5H1200.22V2.5H1190.29V3.5ZM1210.16 3.5H1220.1V2.5H1210.16V3.5ZM1230.03 3.5H1235V2.5H1230.03V3.5Z" fill="#AAAAAA"/>
</svg>
