<svg width="1440" height="504" viewBox="0 0 1440 504" fill="none" xmlns="http://www.w3.org/2000/svg">
<mask id="mask0_914_2321" style="mask-type:alpha" maskUnits="userSpaceOnUse" x="0" y="0" width="1440" height="504">
<rect width="1440" height="504" fill="white"/>
</mask>
<g mask="url(#mask0_914_2321)">
<g opacity="0.3">
<path d="M251.605 427.081L247.374 426.124C256.992 383.786 297.683 343.006 356.215 317.058C414.458 291.229 491.29 279.68 561.794 286.042C600.999 289.616 638.568 298.426 674.895 306.962C720.644 317.669 767.939 328.775 818.14 329.131C898.167 329.677 966.736 304.582 1039.32 278.011C1097.03 256.938 1156.67 235.056 1222.16 227.679C1316.04 217.109 1406.83 237.265 1494.75 256.772C1531.59 264.945 1569.68 273.392 1607.54 279.487C1768.67 305.428 1951.71 289.228 2097.25 236.119L2098.73 240.193C1952.58 293.537 1768.7 309.825 1606.89 283.764C1568.91 277.663 1530.75 269.185 1493.85 261.008C1406.32 241.578 1315.82 221.478 1222.69 231.996C1157.72 239.308 1098.31 261.054 1040.85 282.087C971.093 307.615 898.962 334.009 818.151 333.473C767.461 333.143 719.927 321.97 673.953 311.182C637.759 302.68 600.351 293.893 561.441 290.363C491.654 283.987 415.61 295.473 358.019 321.015C300.679 346.422 260.918 386.078 251.605 427.081Z" fill="#D6D6D6"/>
<path d="M1065.16 409.193C1057.91 408.782 1050.71 408.185 1043.52 407.385C943.841 396.327 854.046 347.963 763.194 295.13L749.556 287.203C667.112 239.147 581.787 189.454 487.691 170.463C377.156 148.159 267.909 178.739 209.306 248.377L208.467 247.681C239.155 211.175 283.06 184.993 335.419 171.854C383.417 159.806 436.188 158.956 487.9 169.406C582.183 188.422 667.547 238.157 750.11 286.261L763.733 294.2C854.482 346.946 944.173 395.223 1043.65 406.297C1158.75 419.109 1283.8 381.892 1425.92 292.455C1469.94 264.752 1513.14 234.054 1554.92 204.37C1621.99 156.673 1691.41 107.366 1765.86 69.2559C1848 27.2008 2008.31 -34.4289 2158.47 25.1186L2158.07 26.1375C2008.27 -33.2681 1848.37 28.2497 1766.36 70.2039C1691.96 108.235 1622.58 157.586 1555.48 205.254C1513.69 234.937 1470.48 265.648 1426.42 293.376C1293.01 377.37 1174.54 415.392 1065.16 409.193Z" fill="#D6D6D6"/>
<path d="M318.765 341.456L317.103 340.009C394.747 246.377 533.06 197.187 696.515 205.043C774.641 208.822 852.878 223.533 928.533 237.774C987.307 248.841 1048.09 260.278 1108.46 266.512C1435.47 300.312 1754.76 183.766 1996.48 78.5115L1997.34 80.4942C1755.45 185.861 1435.78 302.466 1108.3 268.666C1047.82 262.426 987.024 250.975 928.196 239.905C852.635 225.683 774.571 211.009 696.486 207.219C533.634 199.464 395.974 248.34 318.765 341.456Z" fill="#D6D6D6"/>
<path opacity="0.48" d="M749.417 424.202C667.123 419.538 582.677 392.006 508.523 343.892C409.541 279.699 324.84 178.909 263.495 52.4352L265.441 51.4907C326.617 177.616 411.092 278.096 509.708 342.08C622.758 415.428 759.822 440.749 876.375 409.813C956.736 388.483 1028.46 341.889 1097.82 296.824C1168.5 250.9 1241.6 203.41 1323.96 182.518C1462.16 147.548 1603.87 189.658 1748.99 239.805L1752.09 240.874C1889.12 288.236 2030.82 337.189 2172 311.395L2172.39 313.526C2030.64 339.437 1888.68 290.375 1751.38 242.93L1748.28 241.861C1603.47 191.867 1462.11 149.844 1324.49 184.671C1242.45 205.419 1169.54 252.812 1099 298.649C1029.5 343.8 957.637 390.482 876.937 411.833C835.347 422.652 792.309 426.827 749.417 424.202Z" fill="#D6D6D6"/>
<path opacity="0.34" d="M1298.38 358.236C1176.02 351.468 1055.78 323.349 943.102 275.149C894.386 254.294 846.372 229.421 799.946 205.369C757.54 183.397 713.702 160.681 669.443 141.093C558.031 91.8012 462.42 72.8457 377.047 83.1403C269.838 96.1194 176.169 161.931 138.388 250.844L136.394 250.001C155.972 203.913 189.955 163.659 234.568 133.582C277.175 105.103 325.906 87.0964 376.788 81.0295C462.542 70.6888 558.542 89.6935 670.337 139.156C714.649 158.761 758.512 181.505 800.959 203.479C847.345 227.516 895.32 252.372 943.97 273.197C1183.03 375.514 1460.27 385.113 1704.56 299.545L1705.27 301.587C1582.81 344.495 1453.93 363.927 1322.23 359.371C1314.26 359.063 1306.31 358.685 1298.38 358.236Z" fill="#D6D6D6"/>
<path opacity="0.25" d="M929.313 435.127C902.683 433.714 876.356 428.785 851.019 420.467C793.785 401.549 740.819 363.846 689.581 327.39C629.234 284.441 566.835 240.023 497.96 227.1C396.138 208.009 288.685 265.372 230.433 369.853L228.546 368.8C287.236 263.504 395.591 205.719 498.351 224.972C567.707 237.99 630.278 282.485 690.844 325.623C741.938 361.989 794.801 399.592 851.689 418.409C925.179 442.71 1009.05 437.712 1108.06 403.185C1155.4 386.679 1202.28 365.074 1247.61 344.193C1282.08 328.322 1317.7 311.908 1353.32 297.821C1530 227.936 1720.76 209.833 1904.99 245.401L1904.58 247.528C1720.71 212.035 1530.41 230.11 1354.11 299.799C1318.55 313.877 1282.96 330.265 1248.52 346.138C1203.14 367.043 1156.21 388.658 1108.76 405.214C1042.76 428.25 983.389 438.192 929.313 435.127Z" fill="#D6D6D6"/>
<path d="M1501.04 371.078C1491.43 370.534 1481.84 369.869 1472.25 369.082C1316.5 356.414 1162.78 312.488 1027.72 242.071C1022.24 239.231 1016.74 236.323 1011.19 233.398C943.512 197.701 873.509 160.777 802.427 179.888C763.316 190.397 730.748 217.154 699.257 243.011C666.39 270.021 632.404 297.928 590.902 307.477C529.741 321.592 459.306 291.824 411.34 231.739C368.122 177.575 346.611 107.724 327.619 46.1436L329.697 45.504C348.616 106.932 370.072 176.55 413.012 230.386C460.417 289.872 530.061 319.284 590.427 305.354C631.423 295.925 665.211 268.169 697.879 241.324C729.555 215.301 762.294 188.392 801.858 177.759C873.763 158.439 944.147 195.56 1012.21 231.455C1017.75 234.383 1023.25 237.273 1028.72 240.126C1305.5 384.434 1634.3 411.182 1930.77 313.533L1931.45 315.587C1795.69 360.338 1647.47 379.377 1501.04 371.078Z" fill="#D6D6D6"/>
<path opacity="0.58" d="M260.268 433.522C170.724 428.448 92.7276 393.275 44.8949 334.658L46.581 333.293C104.149 403.808 205.874 440.109 318.724 430.411C413.155 422.239 503.408 385.931 590.703 350.781L606.433 344.451C703.017 305.689 797.945 270.863 897.517 270.732C985.18 270.588 1070.92 297.936 1153.85 324.355C1240.24 351.862 1329.55 380.414 1420.74 377.468C1524.6 373.858 1623.08 330.358 1695.72 256.004L1697.28 257.444C1624.26 332.239 1525.24 376.011 1420.8 379.662C1329.28 382.522 1239.76 353.985 1153.19 326.387C1070.41 300.058 984.845 272.692 897.531 272.869C798.335 273.036 703.587 307.791 607.237 346.485L591.494 352.814C504.06 388.024 413.653 424.431 318.897 432.598C299.401 434.293 279.808 434.602 260.268 433.522Z" fill="#D6D6D6"/>
</g>
<rect x="-11" y="28" width="1178" height="522" fill="url(#paint0_linear_914_2321)"/>
</g>
<defs>
<linearGradient id="paint0_linear_914_2321" x1="31" y1="402" x2="814.998" y2="403.187" gradientUnits="userSpaceOnUse">
<stop offset="0.0415344" stop-color="white"/>
<stop offset="0.473958" stop-color="white" stop-opacity="0.545958"/>
<stop offset="0.837338" stop-color="white" stop-opacity="0.229661"/>
<stop offset="1" stop-color="white" stop-opacity="0"/>
</linearGradient>
</defs>
</svg>
