<svg width="226" height="154" viewBox="0 0 226 154" fill="none" xmlns="http://www.w3.org/2000/svg">
<g clip-path="url(#clip0_1108_2232)">
<path d="M225.579 118.76C222.599 121.88 219.626 125.003 216.66 128.13C214.59 130.31 212.559 132.54 210.459 134.7C210.172 134.981 209.947 135.32 209.799 135.694C209.651 136.068 209.583 136.468 209.6 136.87C209.6 141.71 209.6 146.56 209.6 151.4C209.6 152.57 209.299 153.13 208.009 153.03C206.751 152.94 205.488 152.94 204.229 153.03C203.119 153.1 202.84 152.63 202.85 151.6C202.85 146.84 202.85 142.08 202.85 137.32C202.866 136.778 202.768 136.238 202.561 135.737C202.355 135.235 202.044 134.783 201.649 134.41C196.983 129.437 192.316 124.437 187.649 119.41C187.503 119.318 187.385 119.187 187.309 119.031C187.233 118.876 187.202 118.702 187.219 118.53C189.018 118.625 190.821 118.625 192.619 118.53C193.597 118.402 194.591 118.544 195.493 118.941C196.396 119.337 197.173 119.973 197.739 120.78C200.139 123.64 202.83 126.27 205.35 129.04C206.05 129.81 206.449 129.64 207.059 128.96C209.979 125.72 212.949 122.54 215.859 119.3C216.084 119.042 216.365 118.84 216.681 118.71C216.997 118.58 217.339 118.525 217.679 118.55C220.289 118.55 222.889 118.55 225.499 118.55L225.579 118.76Z" fill="#F9F9F9"/>
<path d="M6.79023 131.63V132.95C6.79023 139.14 6.79023 145.33 6.79023 151.51C6.79023 152.71 6.40026 153.09 5.25026 153.02C3.91809 152.941 2.58242 152.941 1.25025 153.02C0.250255 153.08 -0.0797353 152.66 0.0102647 151.75C0.0152772 151.667 0.0152772 151.583 0.0102647 151.5V120.34C0.0102647 118.53 0.0702817 118.72 1.84028 118.46C4.65028 118.06 6.25025 119.24 7.74025 121.54C10.9402 126.49 14.4503 131.25 17.8403 136.08C18.6103 137.18 18.6503 137.18 19.4103 136.08C23.2603 130.58 27.1303 125.08 30.9503 119.56C31.1564 119.192 31.4667 118.893 31.8421 118.701C32.2174 118.509 32.6413 118.432 33.0603 118.48C33.9557 118.545 34.8548 118.545 35.7503 118.48C36.8003 118.39 37.2703 118.76 37.1503 119.85C37.1003 120.38 37.1503 120.91 37.1503 121.44V150.99C37.1503 152.99 37.1503 152.99 35.1503 152.99H32.5903C30.5003 152.99 30.5003 152.99 30.5003 150.99C30.5003 144.99 30.5003 138.967 30.5003 132.92C30.5918 132.429 30.5143 131.921 30.2803 131.48L26.2803 137.22L19.5502 146.97C18.6602 148.26 18.6403 148.27 17.7703 146.97L7.77027 132.48C7.54027 132.15 7.29025 131.84 7.06025 131.48L6.79023 131.63Z" fill="#F9F9F9"/>
<path d="M100.07 15.79C102.078 14.1375 104.222 12.6588 106.48 11.37C116.827 5.27063 128.399 1.54431 140.36 0.459991C142.59 0.249991 144.81 0.0300098 147.06 0.0100098C147.72 0.0100098 147.98 0.239984 148.06 0.889984C149.347 9.73665 150.654 18.5867 151.98 27.44C153.314 36.5267 154.67 45.6167 156.05 54.71C156.87 60.22 157.67 65.71 158.51 71.24C158.61 71.91 158.42 72.16 157.77 72.09H157.52C154.22 72.16 154.25 72.15 153.69 68.95C151.81 58.25 148.23 48.2 142.04 39.19C141.365 38.2761 140.944 37.1995 140.82 36.07C140.62 34.01 140.28 31.96 139.99 29.91C140.008 29.7405 140.041 29.5731 140.09 29.41C143.731 33.7534 146.902 38.4697 149.55 43.48C149.688 43.2416 149.775 42.9774 149.806 42.7038C149.837 42.4302 149.811 42.1531 149.73 41.89C148.49 33.4767 147.244 25.07 145.99 16.67C145.44 13.01 144.89 9.34998 144.37 5.66998C144.25 4.88998 144.15 4.35 143.07 4.44C132.035 5.20661 121.281 8.2722 111.5 13.44C109.487 14.5113 107.546 15.7139 105.69 17.04C105.428 17.2558 105.107 17.3891 104.769 17.4229C104.431 17.4567 104.09 17.3896 103.79 17.23C102.63 16.76 101.41 16.34 100.07 15.79Z" fill="#F9F9F9"/>
<path d="M97.0694 23.7701C94.303 26.2193 91.6945 28.8413 89.2594 31.6201C80.9473 41.6614 75.2113 53.5795 72.5494 66.3401C72.2194 67.9701 71.8894 69.6101 71.6394 71.2501C71.5394 71.9501 71.2494 72.1201 70.6394 72.0901C69.7867 72.0451 68.9322 72.0451 68.0794 72.0901C67.2394 72.1501 67.1594 71.7901 67.2694 71.0901C70.1694 51.8301 73.0561 32.5701 75.9294 13.3101C76.5394 9.24013 77.1494 5.18013 77.7094 1.12013C77.8294 0.270127 78.1494 -0.019858 79.0294 0.010142C89.5939 0.264498 100.017 2.49634 109.759 6.59013C109.859 6.64013 109.949 6.72014 110.229 6.91014C108.619 7.74014 107.129 8.53013 105.629 9.28013C105.229 9.48013 104.839 9.28012 104.459 9.11012C97.5329 6.57332 90.2864 5.015 82.9294 4.48014C81.9294 4.40014 81.5794 4.61012 81.4394 5.61012C79.8861 16.2301 78.3128 26.8468 76.7194 37.4601C76.4294 39.4601 76.1094 41.4601 75.7994 43.4601C76.5094 43.4001 76.5294 42.8001 76.7494 42.4601C80.514 35.5504 85.3814 29.3016 91.1594 23.9601C92.5494 22.7201 93.7594 22.1701 95.4394 23.1801C95.9648 23.4231 96.5102 23.6205 97.0694 23.7701Z" fill="#F9F9F9"/>
<path d="M170.07 153.99H165.88C163.124 153.865 160.421 153.187 157.931 151.997C155.442 150.806 153.218 149.127 151.39 147.06C149.769 145.1 148.594 142.811 147.946 140.352C147.298 137.892 147.193 135.321 147.638 132.817C148.083 130.312 149.068 127.935 150.524 125.85C151.98 123.764 153.873 122.021 156.07 120.74C163.97 116.02 175.67 116.81 182.74 122.66C183.724 123.514 184.621 124.462 185.42 125.49C185.89 126.07 185.97 126.49 185.25 126.96C183.984 127.78 182.747 128.64 181.54 129.54C180.91 130.01 180.54 129.96 180.04 129.32C175.6 123.2 165.12 122.62 159.6 126.27C152.02 131.27 152.53 141.76 160.6 145.96C166.06 148.79 175.6 148.66 180.55 141.49C181.27 140.49 181.83 140.31 182.82 141.13C183.849 141.944 184.935 142.682 186.07 143.34C186.82 143.81 186.8 144.21 186.33 144.9C182.45 150.67 176.9 153.43 170.07 153.99Z" fill="#F9F9F9"/>
<path d="M66.9292 153.98H61.2792C58.6714 153.877 56.0947 153.374 53.6392 152.49C51.9401 151.875 50.4506 150.79 49.3442 149.361C48.2377 147.933 47.5597 146.219 47.3892 144.42C47.231 143.207 47.1574 141.984 47.1692 140.76C47.1692 133.88 47.1692 127 47.1692 120.12C47.1692 118.96 47.4992 118.49 48.6892 118.57C49.9513 118.65 51.2171 118.65 52.4792 118.57C53.6292 118.49 54.0192 118.87 54.0092 120.07C54.0092 126.79 54.0092 133.51 54.0092 140.22C53.9799 141.402 54.1077 142.582 54.3892 143.73C54.5689 144.53 54.9684 145.263 55.5426 145.848C56.1168 146.433 56.843 146.846 57.6392 147.04C59.9282 147.6 62.285 147.832 64.6392 147.73C66.3504 147.753 68.0603 147.626 69.7492 147.35C72.9692 146.74 74.3392 145.27 74.5292 142C74.5892 140.82 74.5892 139.64 74.5892 138.46V120.34C74.5892 118.55 74.5892 118.54 76.4292 118.54H80.3392C80.9492 118.54 81.3392 118.73 81.3392 119.44C81.2292 127.66 81.6892 135.89 81.0992 144.1C80.8092 148.21 78.4692 151.01 74.5992 152.49C72.1355 153.382 69.5478 153.885 66.9292 153.98Z" fill="#F9F9F9"/>
<path d="M136.12 48.3401C135.84 46.3401 135.57 44.3401 135.28 42.3401C134.17 34.5201 133.04 26.7101 131.95 18.9001C131.58 16.3101 131.63 16.3301 134.13 15.5801C135.93 15.0401 135.67 15.2601 135.88 16.7401L141.67 56.3401C142.39 61.2901 143.09 66.2401 143.83 71.1901C143.93 71.8301 143.83 72.1201 143.12 72.0501H142.75C141.75 71.9901 140.36 72.4801 139.68 71.8401C139 71.2001 139.16 69.9401 138.96 68.9501C136.109 54.0751 127.87 40.7754 115.82 31.6001C114.91 30.8901 115 30.6001 115.92 30.0401C118.64 28.4001 118.65 28.3501 121.02 30.3601C126.56 35.0716 131.275 40.6753 134.97 46.9401C135.27 47.4501 135.58 47.9401 135.89 48.4501L136.12 48.3401Z" fill="#F9F9F9"/>
<path d="M92.0704 32.1099L89.8004 47.9999L89.9504 48.0599C90.5104 47.1299 91.0604 46.1999 91.6304 45.2799C97.3318 35.7971 105.568 28.0946 115.41 23.0399C116.96 22.2299 118.52 21.4399 120.05 20.5999C120.262 20.4457 120.521 20.3685 120.783 20.3812C121.045 20.394 121.294 20.4958 121.49 20.6699C122.49 21.4699 123.57 22.2099 124.78 23.0899C122.93 24.0199 121.23 24.8499 119.56 25.7099C101.81 34.8099 91.5604 49.6199 86.8704 68.6399C86.8656 68.7198 86.8656 68.8 86.8704 68.8799C86.2404 72.2599 86.2404 72.2399 82.8704 72.1099C82.1304 72.1099 82.0004 71.8699 82.1104 71.1699C83.1804 64.0099 84.2104 56.8399 85.2504 49.6799C85.7571 46.1799 86.2737 42.6799 86.8004 39.1799C86.8192 38.858 86.908 38.5441 87.0604 38.2599C88.4875 36.0235 90.1687 33.9597 92.0704 32.1099Z" fill="#F9F9F9"/>
<path d="M133.65 135.68C133.65 130.43 133.65 125.18 133.65 119.93C133.65 118.82 133.97 118.4 135.1 118.47C136.48 118.55 137.87 118.53 139.26 118.47C140.26 118.47 140.54 118.78 140.53 119.74C140.53 123.93 140.53 128.12 140.53 132.32C140.53 138.71 140.53 145.1 140.53 151.49C140.53 152.66 140.2 153.09 139.01 153.01C137.678 152.931 136.343 152.931 135.01 153.01C134.01 153.06 133.68 152.68 133.68 151.67C133.67 146.34 133.65 141.02 133.65 135.68Z" fill="#F9F9F9"/>
<path d="M115.67 95.77C115.99 95.41 115.84 94.94 115.85 94.52C115.85 91.79 115.85 89.06 115.85 86.33C115.85 85.33 116.19 84.9 117.19 85.02C117.475 85.0549 117.764 85.0549 118.05 85.02C119.05 84.91 119.32 85.36 119.31 86.29C119.31 90.36 119.31 94.44 119.31 98.51C119.31 99.51 119.31 100.46 119.31 101.44C119.31 101.93 119.54 102.62 118.85 102.81C118.526 102.943 118.171 102.976 117.829 102.904C117.486 102.833 117.173 102.661 116.93 102.41C115.76 101.11 114.57 99.83 113.39 98.53L107.97 92.53C107.79 92.33 107.62 91.97 107.32 92.08C107.02 92.19 107.08 92.65 107.08 92.95C107.08 95.76 107.02 98.57 107.08 101.38C107.08 102.59 106.69 103.02 105.53 102.87C105.287 102.84 105.042 102.84 104.8 102.87C103.9 102.97 103.59 102.58 103.6 101.68C103.6 98.79 103.6 95.9 103.6 93C103.6 90.85 103.6 88.69 103.6 86.53C103.6 86.02 103.29 85.27 104.07 85.07C104.435 84.9357 104.832 84.9154 105.209 85.0119C105.586 85.1083 105.924 85.3168 106.18 85.61C107.73 87.39 109.33 89.13 110.92 90.88L115.03 95.39C115.2 95.59 115.33 95.83 115.67 95.77Z" fill="#F9F9F9"/>
<path d="M62.8402 103.41C61.4223 103.467 60.0082 103.226 58.6901 102.7C55.1101 101.27 52.8101 98.77 52.4901 94.81C52.1601 90.66 54.0501 87.67 57.6801 85.81C62.0201 83.54 68.2501 84.47 71.4401 87.81C72.6101 89.03 72.5702 89.03 71.2202 90.06C70.2202 90.8 69.6401 90.97 68.6401 89.91C66.2301 87.37 61.1101 87.21 58.3701 89.38C57.5234 89.9963 56.8591 90.8301 56.4473 91.793C56.0356 92.756 55.8918 93.8123 56.0312 94.8503C56.1705 95.8882 56.5878 96.8692 57.239 97.6895C57.8901 98.5097 58.7508 99.1388 59.7301 99.51C61.3959 100.258 63.2627 100.432 65.038 100.004C66.8132 99.5774 68.3966 98.5735 69.5401 97.15C70.0401 96.53 70.3701 96.47 71.0201 96.91C73.1401 98.34 73.1801 98.48 71.3301 100.34C70.2127 101.423 68.8781 102.257 67.4146 102.786C65.9511 103.315 64.3919 103.528 62.8402 103.41Z" fill="#F9F9F9"/>
<path d="M142.15 103.41C139.392 103.546 136.689 102.607 134.61 100.79C133.6 99.9032 132.802 98.8015 132.273 97.5657C131.745 96.33 131.5 94.9917 131.557 93.6489C131.613 92.3062 131.97 90.9932 132.6 89.8063C133.231 88.6195 134.119 87.5888 135.2 86.79C139.66 83.39 147.07 84.01 150.77 88.03C151.5 88.83 151.58 89.36 150.56 89.88C150.3 90.0035 150.061 90.1653 149.85 90.36C149.23 90.94 148.78 90.9101 148.15 90.2301C146.859 89.0068 145.221 88.2127 143.461 87.9567C141.702 87.7007 139.906 87.9953 138.32 88.8C137.201 89.3658 136.294 90.2752 135.731 91.3947C135.167 92.5142 134.978 93.7848 135.19 95.02C135.454 96.2878 136.098 97.4451 137.035 98.3382C137.973 99.2313 139.161 99.8179 140.44 100.02C143.8 100.58 146.67 99.81 148.79 97.02C149.17 96.5 149.53 96.52 150.01 96.88C152.16 98.5 152.68 97.96 150.46 100.34C149.382 101.426 148.079 102.263 146.644 102.793C145.209 103.324 143.675 103.534 142.15 103.41Z" fill="#F9F9F9"/>
<path d="M76.4707 93.9101C76.4707 91.3501 76.4707 88.7801 76.4707 86.2201C76.4707 85.3101 76.7907 85.0001 77.6807 85.0201C80.5107 85.0201 79.9407 84.8301 79.9607 87.2701C79.9607 90.8901 79.9607 94.52 79.9607 98.14C79.9607 99.28 80.2907 99.72 81.4907 99.7C84.7507 99.63 88.0107 99.7001 91.2707 99.6501C92.5807 99.6501 92.7007 100.25 92.7007 101.28C92.7007 102.31 92.5907 102.95 91.2707 102.93C86.7907 102.86 82.2707 102.93 77.8307 102.93C76.8307 102.93 76.4607 102.65 76.4807 101.62C76.5107 99.0401 76.4707 96.4801 76.4707 93.9101Z" fill="#F9F9F9"/>
<path d="M89.0703 22.4699C89.4003 20.2599 89.7403 18.0599 90.0703 15.8599C90.1903 15.0899 90.7103 15.3799 91.0703 15.4699C96.8125 16.8579 102.386 18.8698 107.69 21.4699C108.53 21.8899 109.35 22.3299 110.18 22.7799C110.32 22.8499 110.44 22.9599 110.72 23.1499L106.95 25.6099C106.6 25.8299 106.32 25.6099 106.05 25.4499C102.165 23.4012 98.1098 21.6915 93.9303 20.3399C93.5871 20.171 93.2007 20.1101 92.8221 20.1655C92.4436 20.2208 92.0908 20.3898 91.8103 20.6499C91.0103 21.3299 90.1703 21.9599 89.3503 22.6499L89.0703 22.4699Z" fill="#F9F9F9"/>
<path d="M130.289 25.2601C125.799 20.9136 120.756 17.1781 115.289 14.1501C116.709 13.3656 118.179 12.6742 119.689 12.0801C120.149 11.8801 120.469 12.1401 120.809 12.3601C123.754 14.1741 126.55 16.2206 129.169 18.4801C129.409 18.6901 129.719 18.8401 129.769 19.2101C130.062 21.1568 130.346 23.1101 130.619 25.0701L130.289 25.2601Z" fill="#F9F9F9"/>
<path d="M127.97 93.96C127.97 96.52 127.97 99.09 127.97 101.65C127.97 102.59 127.65 102.94 126.69 102.92C124.02 102.86 124.37 103.1 124.36 100.66C124.36 95.91 124.36 91.15 124.36 86.39C124.36 85.33 124.68 84.87 125.75 85C126.082 85.0418 126.418 85.0418 126.75 85C127.75 84.9 128.02 85.34 128.01 86.28C127.95 88.84 127.97 91.4 127.97 93.96Z" fill="#F9F9F9"/>
<path d="M98.4698 93.9401C98.4698 96.4601 98.4698 98.9401 98.4698 101.5C98.4698 102.5 98.2097 103.05 97.1097 102.91C96.7439 102.875 96.3756 102.875 96.0098 102.91C95.2998 102.91 95.0098 102.66 95.0098 101.91C95.0098 96.6167 95.0098 91.3301 95.0098 86.0501C95.0098 85.2401 95.3898 85.0501 96.1298 85.0501C98.4998 84.9601 98.4998 84.9401 98.4998 87.2801L98.4698 93.9401Z" fill="#F9F9F9"/>
<path d="M102.671 78.06C101.441 79.4 100.281 80.81 98.9607 82.06C98.2007 82.78 97.0907 82.41 96.1407 82.31C95.7207 82.31 95.9507 81.85 96.1407 81.63C96.9307 80.5 97.7406 79.38 98.5506 78.25C98.6553 78.0977 98.7958 77.9734 98.9596 77.888C99.1235 77.8025 99.3058 77.7586 99.4907 77.76H102.491L102.671 78.06Z" fill="#F9F9F9"/>
<path d="M126.58 151.57C124.07 147.57 121.58 143.57 119 139.57C118.37 138.57 118.43 138.24 119.55 137.79C121.762 136.944 123.596 135.332 124.718 133.246C125.839 131.161 126.174 128.742 125.66 126.43C124.78 121.97 121.26 118.99 116.23 118.72C108.14 118.3 100.03 118.64 91.9301 118.54C90.9301 118.54 90.8501 119.08 90.8601 119.86C90.8601 125.15 90.8601 130.44 90.8601 135.73C90.8601 141.02 90.8601 146.23 90.8601 151.48C90.8601 152.67 91.2401 153.05 92.4001 152.98C93.7021 152.895 95.0082 152.895 96.3101 152.98C97.4001 153.04 97.7001 152.61 97.6901 151.56C97.6401 147.7 97.6901 143.83 97.6901 139.97C97.6901 138.9 98.0201 138.54 99.0901 138.56C102.43 138.61 105.77 138.64 109.09 138.56C109.628 138.515 110.166 138.631 110.637 138.895C111.108 139.159 111.488 139.558 111.73 140.04C114.26 144.04 116.89 148.04 119.45 152.04C119.61 152.344 119.855 152.593 120.155 152.759C120.456 152.924 120.798 152.998 121.14 152.97C122.68 152.97 124.23 152.97 125.78 152.97C126.24 152.97 126.86 153.22 127.12 152.72C127.38 152.22 126.81 151.93 126.58 151.57ZM116.31 132.01C115.556 132.183 114.783 132.257 114.01 132.23H106.92C104.28 132.23 101.63 132.23 98.9801 132.23C97.9801 132.23 97.6001 131.9 97.6401 130.89C97.7001 129.3 97.6401 127.72 97.6401 126.13C97.6401 125.27 97.8801 124.87 98.8201 124.88C103.99 124.88 109.16 124.88 114.33 124.88C114.942 124.89 115.552 124.96 116.15 125.09C116.951 125.183 117.687 125.574 118.212 126.186C118.736 126.797 119.011 127.585 118.98 128.39C119.083 129.22 118.863 130.059 118.366 130.732C117.87 131.405 117.134 131.863 116.31 132.01Z" fill="#F9F9F9"/>
<path d="M172.47 101.9C171.31 99.6599 170.17 97.41 169.03 95.16C167.49 92.16 165.95 89.1599 164.45 86.1099C164.13 85.4599 163.76 85 163.08 85.03C162.4 85.06 162.08 85.4599 161.71 86.1099C160.21 89.1099 158.71 92.11 157.14 95.16C155.99 97.41 154.85 99.6599 153.69 101.9C153.31 102.62 153.45 102.9 154.3 102.9C156.86 103.02 156.86 103.05 158.01 100.76C158.232 100.371 158.432 99.9706 158.61 99.5599C158.727 99.2152 158.964 98.9241 159.278 98.7404C159.592 98.5566 159.962 98.4925 160.32 98.5599C161.14 98.5599 161.95 98.6099 162.77 98.6199H163.39C164.21 98.6199 165.03 98.62 165.84 98.5599C166.198 98.4925 166.568 98.5566 166.882 98.7404C167.196 98.9241 167.433 99.2152 167.55 99.5599C167.728 99.9706 167.928 100.371 168.15 100.76C169.3 103.05 169.3 103.02 171.86 102.9C172.71 102.89 172.85 102.62 172.47 101.9ZM164.56 95.53H161.56C161.02 95.53 160.79 95.29 161.06 94.76C161.67 93.55 162.3 92.34 163.06 90.91C163.8 92.34 164.43 93.55 165.06 94.76C165.34 95.34 165.07 95.53 164.56 95.53Z" fill="#F9F9F9"/>
</g>
<defs>
<clipPath id="clip0_1108_2232">
<rect width="225.58" height="153.99" fill="white"/>
</clipPath>
</defs>
</svg>
